M48
; DRILL file {KiCad 8.0.5} date 2024-10-17T17:27:21+0200
; FORMAT={-:-/ absolute / inch / decimal}
; #@! TF.CreationDate,2024-10-17T17:27:21+02:00
; #@! TF.GenerationSoftware,Kicad,Pcbnew,8.0.5
; #@! TF.FileFunction,Plated,1,2,PTH
FMAT,2
INCH
; #@! TA.AperFunction,Plated,PTH,ViaDrill
T1C0.0315
; #@! TA.AperFunction,Plated,PTH,ComponentDrill
T2C0.0315
; #@! TA.AperFunction,Plated,PTH,ComponentDrill
T3C0.0394
%
G90
G05
T1
X3.8Y-3.5
X3.8Y-3.9
X4.7Y-2.7
X4.8Y-3.2
X5.1Y-2.4
X5.1Y-2.8
X5.1Y-3.0
X5.1Y-3.4
X5.1Y-3.5
X5.2Y-3.7
T2
X4.0031Y-3.4
X4.2Y-3.4
T3
X3.6811Y-1.9583
X3.6811Y-2.0583
X3.6811Y-2.1583
X3.6811Y-2.2583
X3.6811Y-2.3583
X3.6811Y-2.4583
X3.6811Y-2.5583
X3.6811Y-2.6583
X3.6811Y-2.7583
X3.6811Y-2.8583
X3.6811Y-2.9583
X3.6811Y-3.0583
X3.6811Y-3.1583
X3.6811Y-3.2583
X3.6811Y-3.3583
X3.6811Y-3.4583
X3.6811Y-3.5583
X3.6811Y-3.6583
X3.6811Y-3.7583
X3.6811Y-3.8583
X4.4685Y-1.9583
X4.4685Y-2.0583
X4.4685Y-2.1583
X4.4685Y-2.2583
X4.4685Y-2.3583
X4.4685Y-2.4583
X4.4685Y-2.5583
X4.4685Y-2.6583
X4.4685Y-2.7583
X4.4685Y-2.8583
X4.4685Y-2.9583
X4.4685Y-3.0583
X4.4685Y-3.1583
X4.4685Y-3.2583
X4.4685Y-3.3583
X4.4685Y-3.4583
X4.4685Y-3.5583
X4.4685Y-3.6583
X4.4685Y-3.7583
X4.4685Y-3.8583
X4.9Y-1.926
X4.9Y-2.026
X4.9Y-2.126
X4.9Y-2.226
X4.9Y-3.0
X4.9Y-3.1
X4.9Y-3.2
X4.9Y-3.3
X4.901Y-2.4394
X4.901Y-2.5394
X4.901Y-2.6394
X4.901Y-2.7394
X4.901Y-3.5504
X4.901Y-3.6504
X4.901Y-3.7504
X4.901Y-3.8504
M30
