%TF.GenerationSoftware,KiCad,Pcbnew,8.0.5*%
%TF.CreationDate,2024-10-17T17:27:17+02:00*%
%TF.ProjectId,WiiBoard,57696942-6f61-4726-942e-6b696361645f,rev?*%
%TF.SameCoordinates,Original*%
%TF.FileFunction,Soldermask,Top*%
%TF.FilePolarity,Negative*%
%FSLAX46Y46*%
G04 Gerber Fmt 4.6, Leading zero omitted, Abs format (unit mm)*
G04 Created by KiCad (PCBNEW 8.0.5) date 2024-10-17 17:27:17*
%MOMM*%
%LPD*%
G01*
G04 APERTURE LIST*
%ADD10C,3.200000*%
%ADD11R,1.700000X1.700000*%
%ADD12O,1.700000X1.700000*%
%ADD13R,1.600000X1.600000*%
%ADD14C,1.600000*%
G04 APERTURE END LIST*
D10*
%TO.C,MH 1*%
X132080000Y-43180000D03*
%TD*%
%TO.C,H3*%
X86360000Y-101600000D03*
%TD*%
D11*
%TO.C,J5*%
X113500000Y-49740000D03*
D12*
X113500000Y-52280000D03*
X113500000Y-54820000D03*
X113500000Y-57360000D03*
X113500000Y-59900000D03*
X113500000Y-62440000D03*
X113500000Y-64980000D03*
X113500000Y-67520000D03*
X113500000Y-70060000D03*
X113500000Y-72600000D03*
X113500000Y-75140000D03*
X113500000Y-77680000D03*
X113500000Y-80220000D03*
X113500000Y-82760000D03*
X113500000Y-85300000D03*
X113500000Y-87840000D03*
X113500000Y-90380000D03*
X113500000Y-92920000D03*
X113500000Y-95460000D03*
X113500000Y-98000000D03*
%TD*%
D11*
%TO.C,J3*%
X124460000Y-76200000D03*
D12*
X124460000Y-78740000D03*
X124460000Y-81280000D03*
X124460000Y-83820000D03*
%TD*%
D10*
%TO.C,H1*%
X132080000Y-101600000D03*
%TD*%
D13*
%TO.C,C1*%
X101680000Y-86360000D03*
D14*
X106680000Y-86360000D03*
%TD*%
D10*
%TO.C,H2*%
X86360000Y-43180000D03*
%TD*%
D11*
%TO.C,J2*%
X124485000Y-61960000D03*
D12*
X124485000Y-64500000D03*
X124485000Y-67040000D03*
X124485000Y-69580000D03*
%TD*%
D11*
%TO.C,J4*%
X124460000Y-48920000D03*
D12*
X124460000Y-51460000D03*
X124460000Y-54000000D03*
X124460000Y-56540000D03*
%TD*%
D11*
%TO.C,J1*%
X124485000Y-90180000D03*
D12*
X124485000Y-92720000D03*
X124485000Y-95260000D03*
X124485000Y-97800000D03*
%TD*%
D11*
%TO.C,J6*%
X93500000Y-49740000D03*
D12*
X93500000Y-52280000D03*
X93500000Y-54820000D03*
X93500000Y-57360000D03*
X93500000Y-59900000D03*
X93500000Y-62440000D03*
X93500000Y-64980000D03*
X93500000Y-67520000D03*
X93500000Y-70060000D03*
X93500000Y-72600000D03*
X93500000Y-75140000D03*
X93500000Y-77680000D03*
X93500000Y-80220000D03*
X93500000Y-82760000D03*
X93500000Y-85300000D03*
X93500000Y-87840000D03*
X93500000Y-90380000D03*
X93500000Y-92920000D03*
X93500000Y-95460000D03*
X93500000Y-98000000D03*
%TD*%
M02*
