%TF.GenerationSoftware,KiCad,Pcbnew,8.0.5*%
%TF.CreationDate,2024-10-17T17:27:17+02:00*%
%TF.ProjectId,WiiBoard,57696942-6f61-4726-942e-6b696361645f,rev?*%
%TF.SameCoordinates,Original*%
%TF.FileFunction,Copper,L2,Bot*%
%TF.FilePolarity,Positive*%
%FSLAX46Y46*%
G04 Gerber Fmt 4.6, Leading zero omitted, Abs format (unit mm)*
G04 Created by KiCad (PCBNEW 8.0.5) date 2024-10-17 17:27:17*
%MOMM*%
%LPD*%
G01*
G04 APERTURE LIST*
%TA.AperFunction,ComponentPad*%
%ADD10R,1.700000X1.700000*%
%TD*%
%TA.AperFunction,ComponentPad*%
%ADD11O,1.700000X1.700000*%
%TD*%
%TA.AperFunction,ComponentPad*%
%ADD12R,1.600000X1.600000*%
%TD*%
%TA.AperFunction,ComponentPad*%
%ADD13C,1.600000*%
%TD*%
%TA.AperFunction,ViaPad*%
%ADD14C,1.600000*%
%TD*%
%TA.AperFunction,Conductor*%
%ADD15C,0.500000*%
%TD*%
G04 APERTURE END LIST*
D10*
%TO.P,J5,1,Pin_1*%
%TO.N,GND*%
X113500000Y-49740000D03*
D11*
%TO.P,J5,2,Pin_2*%
%TO.N,unconnected-(J5-Pin_2-Pad2)*%
X113500000Y-52280000D03*
%TO.P,J5,3,Pin_3*%
%TO.N,unconnected-(J5-Pin_3-Pad3)*%
X113500000Y-54820000D03*
%TO.P,J5,4,Pin_4*%
%TO.N,unconnected-(J5-Pin_4-Pad4)*%
X113500000Y-57360000D03*
%TO.P,J5,5,Pin_5*%
%TO.N,unconnected-(J5-Pin_5-Pad5)*%
X113500000Y-59900000D03*
%TO.P,J5,6,Pin_6*%
%TO.N,unconnected-(J5-Pin_6-Pad6)*%
X113500000Y-62440000D03*
%TO.P,J5,7,Pin_7*%
%TO.N,unconnected-(J5-Pin_7-Pad7)*%
X113500000Y-64980000D03*
%TO.P,J5,8,Pin_8*%
%TO.N,unconnected-(J5-Pin_8-Pad8)*%
X113500000Y-67520000D03*
%TO.P,J5,9,Pin_9*%
%TO.N,unconnected-(J5-Pin_9-Pad9)*%
X113500000Y-70060000D03*
%TO.P,J5,10,Pin_10*%
%TO.N,Net-(J1-Pin_3)*%
X113500000Y-72600000D03*
%TO.P,J5,11,Pin_11*%
%TO.N,Net-(J3-Pin_2)*%
X113500000Y-75140000D03*
%TO.P,J5,12,Pin_12*%
%TO.N,unconnected-(J5-Pin_12-Pad12)*%
X113500000Y-77680000D03*
%TO.P,J5,13,Pin_13*%
%TO.N,unconnected-(J5-Pin_13-Pad13)*%
X113500000Y-80220000D03*
%TO.P,J5,14,Pin_14*%
%TO.N,unconnected-(J5-Pin_14-Pad14)*%
X113500000Y-82760000D03*
%TO.P,J5,15,Pin_15*%
%TO.N,unconnected-(J5-Pin_15-Pad15)*%
X113500000Y-85300000D03*
%TO.P,J5,16,Pin_16*%
%TO.N,unconnected-(J5-Pin_16-Pad16)*%
X113500000Y-87840000D03*
%TO.P,J5,17,Pin_17*%
%TO.N,unconnected-(J5-Pin_17-Pad17)*%
X113500000Y-90380000D03*
%TO.P,J5,18,Pin_18*%
%TO.N,unconnected-(J5-Pin_18-Pad18)*%
X113500000Y-92920000D03*
%TO.P,J5,19,Pin_19*%
%TO.N,+3.3V*%
X113500000Y-95460000D03*
%TO.P,J5,20,Pin_20*%
%TO.N,unconnected-(J5-Pin_20-Pad20)*%
X113500000Y-98000000D03*
%TD*%
D10*
%TO.P,J3,1,Pin_1*%
%TO.N,GND*%
X124460000Y-76200000D03*
D11*
%TO.P,J3,2,Pin_2*%
%TO.N,Net-(J3-Pin_2)*%
X124460000Y-78740000D03*
%TO.P,J3,3,Pin_3*%
%TO.N,Net-(J1-Pin_3)*%
X124460000Y-81280000D03*
%TO.P,J3,4,Pin_4*%
%TO.N,VDD*%
X124460000Y-83820000D03*
%TD*%
D12*
%TO.P,C1,1*%
%TO.N,+3.3V*%
X101680000Y-86360000D03*
D13*
%TO.P,C1,2*%
%TO.N,GND*%
X106680000Y-86360000D03*
%TD*%
D10*
%TO.P,J2,1,Pin_1*%
%TO.N,GND*%
X124485000Y-61960000D03*
D11*
%TO.P,J2,2,Pin_2*%
%TO.N,Net-(J2-Pin_2)*%
X124485000Y-64500000D03*
%TO.P,J2,3,Pin_3*%
%TO.N,Net-(J1-Pin_3)*%
X124485000Y-67040000D03*
%TO.P,J2,4,Pin_4*%
%TO.N,VDD*%
X124485000Y-69580000D03*
%TD*%
D10*
%TO.P,J4,1,Pin_1*%
%TO.N,GND*%
X124460000Y-48920000D03*
D11*
%TO.P,J4,2,Pin_2*%
%TO.N,Net-(J4-Pin_2)*%
X124460000Y-51460000D03*
%TO.P,J4,3,Pin_3*%
%TO.N,Net-(J1-Pin_3)*%
X124460000Y-54000000D03*
%TO.P,J4,4,Pin_4*%
%TO.N,VDD*%
X124460000Y-56540000D03*
%TD*%
D10*
%TO.P,J1,1,Pin_1*%
%TO.N,GND*%
X124485000Y-90180000D03*
D11*
%TO.P,J1,2,Pin_2*%
%TO.N,Net-(J1-Pin_2)*%
X124485000Y-92720000D03*
%TO.P,J1,3,Pin_3*%
%TO.N,Net-(J1-Pin_3)*%
X124485000Y-95260000D03*
%TO.P,J1,4,Pin_4*%
%TO.N,VDD*%
X124485000Y-97800000D03*
%TD*%
D10*
%TO.P,J6,1,Pin_1*%
%TO.N,unconnected-(J6-Pin_1-Pad1)*%
X93500000Y-49740000D03*
D11*
%TO.P,J6,2,Pin_2*%
%TO.N,unconnected-(J6-Pin_2-Pad2)*%
X93500000Y-52280000D03*
%TO.P,J6,3,Pin_3*%
%TO.N,unconnected-(J6-Pin_3-Pad3)*%
X93500000Y-54820000D03*
%TO.P,J6,4,Pin_4*%
%TO.N,unconnected-(J6-Pin_4-Pad4)*%
X93500000Y-57360000D03*
%TO.P,J6,5,Pin_5*%
%TO.N,unconnected-(J6-Pin_5-Pad5)*%
X93500000Y-59900000D03*
%TO.P,J6,6,Pin_6*%
%TO.N,unconnected-(J6-Pin_6-Pad6)*%
X93500000Y-62440000D03*
%TO.P,J6,7,Pin_7*%
%TO.N,unconnected-(J6-Pin_7-Pad7)*%
X93500000Y-64980000D03*
%TO.P,J6,8,Pin_8*%
%TO.N,Net-(J4-Pin_2)*%
X93500000Y-67520000D03*
%TO.P,J6,9,Pin_9*%
%TO.N,Net-(J2-Pin_2)*%
X93500000Y-70060000D03*
%TO.P,J6,10,Pin_10*%
%TO.N,Net-(J1-Pin_2)*%
X93500000Y-72600000D03*
%TO.P,J6,11,Pin_11*%
%TO.N,unconnected-(J6-Pin_11-Pad11)*%
X93500000Y-75140000D03*
%TO.P,J6,12,Pin_12*%
%TO.N,unconnected-(J6-Pin_12-Pad12)*%
X93500000Y-77680000D03*
%TO.P,J6,13,Pin_13*%
%TO.N,unconnected-(J6-Pin_13-Pad13)*%
X93500000Y-80220000D03*
%TO.P,J6,14,Pin_14*%
%TO.N,unconnected-(J6-Pin_14-Pad14)*%
X93500000Y-82760000D03*
%TO.P,J6,15,Pin_15*%
%TO.N,unconnected-(J6-Pin_15-Pad15)*%
X93500000Y-85300000D03*
%TO.P,J6,16,Pin_16*%
%TO.N,unconnected-(J6-Pin_16-Pad16)*%
X93500000Y-87840000D03*
%TO.P,J6,17,Pin_17*%
%TO.N,unconnected-(J6-Pin_17-Pad17)*%
X93500000Y-90380000D03*
%TO.P,J6,18,Pin_18*%
%TO.N,unconnected-(J6-Pin_18-Pad18)*%
X93500000Y-92920000D03*
%TO.P,J6,19,Pin_19*%
%TO.N,unconnected-(J6-Pin_19-Pad19)*%
X93500000Y-95460000D03*
%TO.P,J6,20,Pin_20*%
%TO.N,unconnected-(J6-Pin_20-Pad20)*%
X93500000Y-98000000D03*
%TD*%
D14*
%TO.N,Net-(J1-Pin_2)*%
X96520000Y-88900000D03*
X96520000Y-99060000D03*
%TO.N,Net-(J1-Pin_3)*%
X119380000Y-68580000D03*
X121920000Y-81280000D03*
%TO.N,VDD*%
X129540000Y-86360000D03*
X129540000Y-60960000D03*
X129540000Y-76200000D03*
X132080000Y-93980000D03*
X129540000Y-71120000D03*
X129540000Y-88900000D03*
%TD*%
D15*
%TO.N,Net-(J1-Pin_2)*%
X96520000Y-99060000D02*
X96520000Y-88900000D01*
%TO.N,Net-(J1-Pin_3)*%
X121920000Y-81280000D02*
X119380000Y-78740000D01*
X119380000Y-76200000D02*
X115780000Y-72600000D01*
X119380000Y-78740000D02*
X119380000Y-76200000D01*
X115780000Y-72600000D02*
X113500000Y-72600000D01*
X115780000Y-72600000D02*
X119380000Y-69000000D01*
X119380000Y-69000000D02*
X119380000Y-68580000D01*
%TO.N,VDD*%
X132080000Y-91440000D02*
X129540000Y-88900000D01*
X129540000Y-86360000D02*
X129540000Y-76200000D01*
X129540000Y-71120000D02*
X129540000Y-60960000D01*
X132080000Y-93980000D02*
X132080000Y-91440000D01*
%TD*%
%TA.AperFunction,Conductor*%
%TO.N,GND*%
G36*
X136602539Y-38620185D02*
G01*
X136648294Y-38672989D01*
X136659500Y-38724500D01*
X136659500Y-106055500D01*
X136639815Y-106122539D01*
X136587011Y-106168294D01*
X136535500Y-106179500D01*
X81904500Y-106179500D01*
X81837461Y-106159815D01*
X81791706Y-106107011D01*
X81780500Y-106055500D01*
X81780500Y-101478711D01*
X84509500Y-101478711D01*
X84509500Y-101721288D01*
X84541161Y-101961785D01*
X84603947Y-102196104D01*
X84696773Y-102420205D01*
X84696776Y-102420212D01*
X84818064Y-102630289D01*
X84818066Y-102630292D01*
X84818067Y-102630293D01*
X84965733Y-102822736D01*
X84965739Y-102822743D01*
X85137256Y-102994260D01*
X85137262Y-102994265D01*
X85329711Y-103141936D01*
X85539788Y-103263224D01*
X85763900Y-103356054D01*
X85998211Y-103418838D01*
X86178586Y-103442584D01*
X86238711Y-103450500D01*
X86238712Y-103450500D01*
X86481289Y-103450500D01*
X86529388Y-103444167D01*
X86721789Y-103418838D01*
X86956100Y-103356054D01*
X87180212Y-103263224D01*
X87390289Y-103141936D01*
X87582738Y-102994265D01*
X87754265Y-102822738D01*
X87901936Y-102630289D01*
X88023224Y-102420212D01*
X88116054Y-102196100D01*
X88178838Y-101961789D01*
X88210500Y-101721288D01*
X88210500Y-101478712D01*
X88210500Y-101478711D01*
X130229500Y-101478711D01*
X130229500Y-101721288D01*
X130261161Y-101961785D01*
X130323947Y-102196104D01*
X130416773Y-102420205D01*
X130416776Y-102420212D01*
X130538064Y-102630289D01*
X130538066Y-102630292D01*
X130538067Y-102630293D01*
X130685733Y-102822736D01*
X130685739Y-102822743D01*
X130857256Y-102994260D01*
X130857262Y-102994265D01*
X131049711Y-103141936D01*
X131259788Y-103263224D01*
X131483900Y-103356054D01*
X131718211Y-103418838D01*
X131898586Y-103442584D01*
X131958711Y-103450500D01*
X131958712Y-103450500D01*
X132201289Y-103450500D01*
X132249388Y-103444167D01*
X132441789Y-103418838D01*
X132676100Y-103356054D01*
X132900212Y-103263224D01*
X133110289Y-103141936D01*
X133302738Y-102994265D01*
X133474265Y-102822738D01*
X133621936Y-102630289D01*
X133743224Y-102420212D01*
X133836054Y-102196100D01*
X133898838Y-101961789D01*
X133930500Y-101721288D01*
X133930500Y-101478712D01*
X133898838Y-101238211D01*
X133836054Y-101003900D01*
X133743224Y-100779788D01*
X133621936Y-100569711D01*
X133474265Y-100377262D01*
X133474260Y-100377256D01*
X133302743Y-100205739D01*
X133302736Y-100205733D01*
X133110293Y-100058067D01*
X133110292Y-100058066D01*
X133110289Y-100058064D01*
X132900212Y-99936776D01*
X132900205Y-99936773D01*
X132676104Y-99843947D01*
X132441785Y-99781161D01*
X132201289Y-99749500D01*
X132201288Y-99749500D01*
X131958712Y-99749500D01*
X131958711Y-99749500D01*
X131718214Y-99781161D01*
X131483895Y-99843947D01*
X131259794Y-99936773D01*
X131259785Y-99936777D01*
X131049706Y-100058067D01*
X130857263Y-100205733D01*
X130857256Y-100205739D01*
X130685739Y-100377256D01*
X130685733Y-100377263D01*
X130538067Y-100569706D01*
X130416777Y-100779785D01*
X130416773Y-100779794D01*
X130323947Y-101003895D01*
X130261161Y-101238214D01*
X130229500Y-101478711D01*
X88210500Y-101478711D01*
X88178838Y-101238211D01*
X88116054Y-101003900D01*
X88023224Y-100779788D01*
X87901936Y-100569711D01*
X87754265Y-100377262D01*
X87754260Y-100377256D01*
X87582743Y-100205739D01*
X87582736Y-100205733D01*
X87390293Y-100058067D01*
X87390292Y-100058066D01*
X87390289Y-100058064D01*
X87180212Y-99936776D01*
X87180205Y-99936773D01*
X86956104Y-99843947D01*
X86721785Y-99781161D01*
X86481289Y-99749500D01*
X86481288Y-99749500D01*
X86238712Y-99749500D01*
X86238711Y-99749500D01*
X85998214Y-99781161D01*
X85763895Y-99843947D01*
X85539794Y-99936773D01*
X85539785Y-99936777D01*
X85329706Y-100058067D01*
X85137263Y-100205733D01*
X85137256Y-100205739D01*
X84965739Y-100377256D01*
X84965733Y-100377263D01*
X84818067Y-100569706D01*
X84696777Y-100779785D01*
X84696773Y-100779794D01*
X84603947Y-101003895D01*
X84541161Y-101238214D01*
X84509500Y-101478711D01*
X81780500Y-101478711D01*
X81780500Y-52279999D01*
X92144341Y-52279999D01*
X92144341Y-52280000D01*
X92164936Y-52515403D01*
X92164938Y-52515413D01*
X92226094Y-52743655D01*
X92226096Y-52743659D01*
X92226097Y-52743663D01*
X92264475Y-52825965D01*
X92325965Y-52957830D01*
X92325967Y-52957834D01*
X92434281Y-53112521D01*
X92445537Y-53128597D01*
X92461501Y-53151395D01*
X92461506Y-53151402D01*
X92628597Y-53318493D01*
X92628603Y-53318498D01*
X92814158Y-53448425D01*
X92857783Y-53503002D01*
X92864977Y-53572500D01*
X92833454Y-53634855D01*
X92814158Y-53651575D01*
X92628597Y-53781505D01*
X92461505Y-53948597D01*
X92325965Y-54142169D01*
X92325964Y-54142171D01*
X92226098Y-54356335D01*
X92226094Y-54356344D01*
X92164938Y-54584586D01*
X92164936Y-54584596D01*
X92144341Y-54819999D01*
X92144341Y-54820000D01*
X92164936Y-55055403D01*
X92164938Y-55055413D01*
X92226094Y-55283655D01*
X92226096Y-55283659D01*
X92226097Y-55283663D01*
X92264475Y-55365965D01*
X92325965Y-55497830D01*
X92325967Y-55497834D01*
X92434281Y-55652521D01*
X92445537Y-55668597D01*
X92461501Y-55691395D01*
X92461506Y-55691402D01*
X92628597Y-55858493D01*
X92628603Y-55858498D01*
X92814158Y-55988425D01*
X92857783Y-56043002D01*
X92864977Y-56112500D01*
X92833454Y-56174855D01*
X92814158Y-56191575D01*
X92628597Y-56321505D01*
X92461505Y-56488597D01*
X92325965Y-56682169D01*
X92325964Y-56682171D01*
X92226098Y-56896335D01*
X92226094Y-56896344D01*
X92164938Y-57124586D01*
X92164936Y-57124596D01*
X92144341Y-57359999D01*
X92144341Y-57360000D01*
X92164936Y-57595403D01*
X92164938Y-57595413D01*
X92226094Y-57823655D01*
X92226096Y-57823659D01*
X92226097Y-57823663D01*
X92325965Y-58037830D01*
X92325967Y-58037834D01*
X92461501Y-58231395D01*
X92461506Y-58231402D01*
X92628597Y-58398493D01*
X92628603Y-58398498D01*
X92814158Y-58528425D01*
X92857783Y-58583002D01*
X92864977Y-58652500D01*
X92833454Y-58714855D01*
X92814158Y-58731575D01*
X92628597Y-58861505D01*
X92461505Y-59028597D01*
X92325965Y-59222169D01*
X92325964Y-59222171D01*
X92226098Y-59436335D01*
X92226094Y-59436344D01*
X92164938Y-59664586D01*
X92164936Y-59664596D01*
X92144341Y-59899999D01*
X92144341Y-59900000D01*
X92164936Y-60135403D01*
X92164938Y-60135413D01*
X92226094Y-60363655D01*
X92226096Y-60363659D01*
X92226097Y-60363663D01*
X92325965Y-60577830D01*
X92325967Y-60577834D01*
X92461501Y-60771395D01*
X92461506Y-60771402D01*
X92628597Y-60938493D01*
X92628603Y-60938498D01*
X92814158Y-61068425D01*
X92857783Y-61123002D01*
X92864977Y-61192500D01*
X92833454Y-61254855D01*
X92814158Y-61271575D01*
X92628597Y-61401505D01*
X92461505Y-61568597D01*
X92325965Y-61762169D01*
X92325964Y-61762171D01*
X92226098Y-61976335D01*
X92226094Y-61976344D01*
X92164938Y-62204586D01*
X92164936Y-62204596D01*
X92144341Y-62439999D01*
X92144341Y-62440000D01*
X92164936Y-62675403D01*
X92164938Y-62675413D01*
X92226094Y-62903655D01*
X92226096Y-62903659D01*
X92226097Y-62903663D01*
X92232490Y-62917372D01*
X92325965Y-63117830D01*
X92325967Y-63117834D01*
X92461501Y-63311395D01*
X92461506Y-63311402D01*
X92628597Y-63478493D01*
X92628603Y-63478498D01*
X92814158Y-63608425D01*
X92857783Y-63663002D01*
X92864977Y-63732500D01*
X92833454Y-63794855D01*
X92814158Y-63811575D01*
X92628597Y-63941505D01*
X92461505Y-64108597D01*
X92325965Y-64302169D01*
X92325964Y-64302171D01*
X92226098Y-64516335D01*
X92226094Y-64516344D01*
X92164938Y-64744586D01*
X92164936Y-64744596D01*
X92144341Y-64979999D01*
X92144341Y-64980000D01*
X92164936Y-65215403D01*
X92164938Y-65215413D01*
X92226094Y-65443655D01*
X92226096Y-65443659D01*
X92226097Y-65443663D01*
X92325965Y-65657830D01*
X92325967Y-65657834D01*
X92461501Y-65851395D01*
X92461506Y-65851402D01*
X92628597Y-66018493D01*
X92628603Y-66018498D01*
X92814158Y-66148425D01*
X92857783Y-66203002D01*
X92864977Y-66272500D01*
X92833454Y-66334855D01*
X92814158Y-66351575D01*
X92628597Y-66481505D01*
X92461505Y-66648597D01*
X92325965Y-66842169D01*
X92325964Y-66842171D01*
X92226098Y-67056335D01*
X92226094Y-67056344D01*
X92164938Y-67284586D01*
X92164936Y-67284596D01*
X92144341Y-67519999D01*
X92144341Y-67520000D01*
X92164936Y-67755403D01*
X92164938Y-67755413D01*
X92226094Y-67983655D01*
X92226096Y-67983659D01*
X92226097Y-67983663D01*
X92325965Y-68197830D01*
X92325967Y-68197834D01*
X92461501Y-68391395D01*
X92461506Y-68391402D01*
X92628597Y-68558493D01*
X92628603Y-68558498D01*
X92814158Y-68688425D01*
X92857783Y-68743002D01*
X92864977Y-68812500D01*
X92833454Y-68874855D01*
X92814158Y-68891575D01*
X92628597Y-69021505D01*
X92461505Y-69188597D01*
X92325965Y-69382169D01*
X92325964Y-69382171D01*
X92226098Y-69596335D01*
X92226094Y-69596344D01*
X92164938Y-69824586D01*
X92164936Y-69824596D01*
X92144341Y-70059999D01*
X92144341Y-70060000D01*
X92164936Y-70295403D01*
X92164938Y-70295413D01*
X92226094Y-70523655D01*
X92226096Y-70523659D01*
X92226097Y-70523663D01*
X92325965Y-70737830D01*
X92325967Y-70737834D01*
X92461501Y-70931395D01*
X92461506Y-70931402D01*
X92628597Y-71098493D01*
X92628603Y-71098498D01*
X92814158Y-71228425D01*
X92857783Y-71283002D01*
X92864977Y-71352500D01*
X92833454Y-71414855D01*
X92814158Y-71431575D01*
X92628597Y-71561505D01*
X92461505Y-71728597D01*
X92325965Y-71922169D01*
X92325964Y-71922171D01*
X92226098Y-72136335D01*
X92226094Y-72136344D01*
X92164938Y-72364586D01*
X92164936Y-72364596D01*
X92144341Y-72599999D01*
X92144341Y-72600000D01*
X92164936Y-72835403D01*
X92164938Y-72835413D01*
X92226094Y-73063655D01*
X92226096Y-73063659D01*
X92226097Y-73063663D01*
X92325965Y-73277830D01*
X92325967Y-73277834D01*
X92461501Y-73471395D01*
X92461506Y-73471402D01*
X92628597Y-73638493D01*
X92628603Y-73638498D01*
X92814158Y-73768425D01*
X92857783Y-73823002D01*
X92864977Y-73892500D01*
X92833454Y-73954855D01*
X92814158Y-73971575D01*
X92628597Y-74101505D01*
X92461505Y-74268597D01*
X92325965Y-74462169D01*
X92325964Y-74462171D01*
X92226098Y-74676335D01*
X92226094Y-74676344D01*
X92164938Y-74904586D01*
X92164936Y-74904596D01*
X92144341Y-75139999D01*
X92144341Y-75140000D01*
X92164936Y-75375403D01*
X92164938Y-75375413D01*
X92226094Y-75603655D01*
X92226096Y-75603659D01*
X92226097Y-75603663D01*
X92307289Y-75777779D01*
X92325965Y-75817830D01*
X92325967Y-75817834D01*
X92461501Y-76011395D01*
X92461506Y-76011402D01*
X92628597Y-76178493D01*
X92628603Y-76178498D01*
X92814158Y-76308425D01*
X92857783Y-76363002D01*
X92864977Y-76432500D01*
X92833454Y-76494855D01*
X92814158Y-76511575D01*
X92628597Y-76641505D01*
X92461505Y-76808597D01*
X92325965Y-77002169D01*
X92325964Y-77002171D01*
X92226098Y-77216335D01*
X92226094Y-77216344D01*
X92164938Y-77444586D01*
X92164936Y-77444596D01*
X92144341Y-77679999D01*
X92144341Y-77680000D01*
X92164936Y-77915403D01*
X92164938Y-77915413D01*
X92226094Y-78143655D01*
X92226096Y-78143659D01*
X92226097Y-78143663D01*
X92325965Y-78357830D01*
X92325967Y-78357834D01*
X92461501Y-78551395D01*
X92461506Y-78551402D01*
X92628597Y-78718493D01*
X92628603Y-78718498D01*
X92814158Y-78848425D01*
X92857783Y-78903002D01*
X92864977Y-78972500D01*
X92833454Y-79034855D01*
X92814158Y-79051575D01*
X92628597Y-79181505D01*
X92461505Y-79348597D01*
X92325965Y-79542169D01*
X92325964Y-79542171D01*
X92226098Y-79756335D01*
X92226094Y-79756344D01*
X92164938Y-79984586D01*
X92164936Y-79984596D01*
X92144341Y-80219999D01*
X92144341Y-80220000D01*
X92164936Y-80455403D01*
X92164938Y-80455413D01*
X92226094Y-80683655D01*
X92226096Y-80683659D01*
X92226097Y-80683663D01*
X92295969Y-80833504D01*
X92325965Y-80897830D01*
X92325967Y-80897834D01*
X92461501Y-81091395D01*
X92461506Y-81091402D01*
X92628597Y-81258493D01*
X92628603Y-81258498D01*
X92814158Y-81388425D01*
X92857783Y-81443002D01*
X92864977Y-81512500D01*
X92833454Y-81574855D01*
X92814158Y-81591575D01*
X92628597Y-81721505D01*
X92461505Y-81888597D01*
X92325965Y-82082169D01*
X92325964Y-82082171D01*
X92226098Y-82296335D01*
X92226094Y-82296344D01*
X92164938Y-82524586D01*
X92164936Y-82524596D01*
X92144341Y-82759999D01*
X92144341Y-82760000D01*
X92164936Y-82995403D01*
X92164938Y-82995413D01*
X92226094Y-83223655D01*
X92226096Y-83223659D01*
X92226097Y-83223663D01*
X92325965Y-83437830D01*
X92325967Y-83437834D01*
X92461501Y-83631395D01*
X92461506Y-83631402D01*
X92628597Y-83798493D01*
X92628603Y-83798498D01*
X92814158Y-83928425D01*
X92857783Y-83983002D01*
X92864977Y-84052500D01*
X92833454Y-84114855D01*
X92814158Y-84131575D01*
X92628597Y-84261505D01*
X92461505Y-84428597D01*
X92325965Y-84622169D01*
X92325964Y-84622171D01*
X92226098Y-84836335D01*
X92226094Y-84836344D01*
X92164938Y-85064586D01*
X92164936Y-85064596D01*
X92144341Y-85299999D01*
X92144341Y-85300000D01*
X92164936Y-85535403D01*
X92164938Y-85535413D01*
X92226094Y-85763655D01*
X92226096Y-85763659D01*
X92226097Y-85763663D01*
X92296046Y-85913668D01*
X92325965Y-85977830D01*
X92325967Y-85977834D01*
X92461501Y-86171395D01*
X92461506Y-86171402D01*
X92628597Y-86338493D01*
X92628603Y-86338498D01*
X92814158Y-86468425D01*
X92857783Y-86523002D01*
X92864977Y-86592500D01*
X92833454Y-86654855D01*
X92814158Y-86671575D01*
X92628597Y-86801505D01*
X92461505Y-86968597D01*
X92325965Y-87162169D01*
X92325964Y-87162171D01*
X92226098Y-87376335D01*
X92226094Y-87376344D01*
X92164938Y-87604586D01*
X92164936Y-87604596D01*
X92144341Y-87839999D01*
X92144341Y-87840000D01*
X92164936Y-88075403D01*
X92164938Y-88075413D01*
X92226094Y-88303655D01*
X92226096Y-88303659D01*
X92226097Y-88303663D01*
X92325965Y-88517830D01*
X92325967Y-88517834D01*
X92461501Y-88711395D01*
X92461506Y-88711402D01*
X92628597Y-88878493D01*
X92628603Y-88878498D01*
X92814158Y-89008425D01*
X92857783Y-89063002D01*
X92864977Y-89132500D01*
X92833454Y-89194855D01*
X92814158Y-89211575D01*
X92628597Y-89341505D01*
X92461505Y-89508597D01*
X92325965Y-89702169D01*
X92325964Y-89702171D01*
X92226098Y-89916335D01*
X92226094Y-89916344D01*
X92164938Y-90144586D01*
X92164936Y-90144596D01*
X92144341Y-90379999D01*
X92144341Y-90380000D01*
X92164936Y-90615403D01*
X92164938Y-90615413D01*
X92226094Y-90843655D01*
X92226096Y-90843659D01*
X92226097Y-90843663D01*
X92281085Y-90961584D01*
X92325965Y-91057830D01*
X92325967Y-91057834D01*
X92461501Y-91251395D01*
X92461506Y-91251402D01*
X92628597Y-91418493D01*
X92628603Y-91418498D01*
X92814158Y-91548425D01*
X92857783Y-91603002D01*
X92864977Y-91672500D01*
X92833454Y-91734855D01*
X92814158Y-91751575D01*
X92628597Y-91881505D01*
X92461505Y-92048597D01*
X92325965Y-92242169D01*
X92325964Y-92242171D01*
X92226098Y-92456335D01*
X92226094Y-92456344D01*
X92164938Y-92684586D01*
X92164936Y-92684596D01*
X92144341Y-92919999D01*
X92144341Y-92920000D01*
X92164936Y-93155403D01*
X92164938Y-93155413D01*
X92226094Y-93383655D01*
X92226096Y-93383659D01*
X92226097Y-93383663D01*
X92322964Y-93591395D01*
X92325965Y-93597830D01*
X92325967Y-93597834D01*
X92461501Y-93791395D01*
X92461506Y-93791402D01*
X92628597Y-93958493D01*
X92628603Y-93958498D01*
X92814158Y-94088425D01*
X92857783Y-94143002D01*
X92864977Y-94212500D01*
X92833454Y-94274855D01*
X92814158Y-94291575D01*
X92628597Y-94421505D01*
X92461505Y-94588597D01*
X92325965Y-94782169D01*
X92325964Y-94782171D01*
X92226098Y-94996335D01*
X92226094Y-94996344D01*
X92164938Y-95224586D01*
X92164936Y-95224596D01*
X92144341Y-95459999D01*
X92144341Y-95460000D01*
X92164936Y-95695403D01*
X92164938Y-95695413D01*
X92226094Y-95923655D01*
X92226096Y-95923659D01*
X92226097Y-95923663D01*
X92322964Y-96131395D01*
X92325965Y-96137830D01*
X92325967Y-96137834D01*
X92461501Y-96331395D01*
X92461506Y-96331402D01*
X92628597Y-96498493D01*
X92628603Y-96498498D01*
X92814158Y-96628425D01*
X92857783Y-96683002D01*
X92864977Y-96752500D01*
X92833454Y-96814855D01*
X92814158Y-96831575D01*
X92628597Y-96961505D01*
X92461505Y-97128597D01*
X92325965Y-97322169D01*
X92325964Y-97322171D01*
X92226098Y-97536335D01*
X92226094Y-97536344D01*
X92164938Y-97764586D01*
X92164936Y-97764596D01*
X92144341Y-97999999D01*
X92144341Y-98000000D01*
X92164936Y-98235403D01*
X92164938Y-98235413D01*
X92226094Y-98463655D01*
X92226096Y-98463659D01*
X92226097Y-98463663D01*
X92322964Y-98671395D01*
X92325965Y-98677830D01*
X92325967Y-98677834D01*
X92434281Y-98832521D01*
X92461505Y-98871401D01*
X92628599Y-99038495D01*
X92659313Y-99060001D01*
X92822165Y-99174032D01*
X92822167Y-99174033D01*
X92822170Y-99174035D01*
X93036337Y-99273903D01*
X93264592Y-99335063D01*
X93452918Y-99351539D01*
X93499999Y-99355659D01*
X93500000Y-99355659D01*
X93500001Y-99355659D01*
X93539234Y-99352226D01*
X93735408Y-99335063D01*
X93963663Y-99273903D01*
X94177830Y-99174035D01*
X94371401Y-99038495D01*
X94538495Y-98871401D01*
X94674035Y-98677830D01*
X94773903Y-98463663D01*
X94835063Y-98235408D01*
X94855659Y-98000000D01*
X94835063Y-97764592D01*
X94773903Y-97536337D01*
X94674035Y-97322171D01*
X94538495Y-97128599D01*
X94538494Y-97128597D01*
X94371402Y-96961506D01*
X94371396Y-96961501D01*
X94185842Y-96831575D01*
X94142217Y-96776998D01*
X94135023Y-96707500D01*
X94166546Y-96645145D01*
X94185842Y-96628425D01*
X94326407Y-96530000D01*
X94371401Y-96498495D01*
X94538495Y-96331401D01*
X94674035Y-96137830D01*
X94773903Y-95923663D01*
X94835063Y-95695408D01*
X94855659Y-95460000D01*
X94835063Y-95224592D01*
X94773903Y-94996337D01*
X94674035Y-94782171D01*
X94569398Y-94632732D01*
X94538494Y-94588597D01*
X94371402Y-94421506D01*
X94371396Y-94421501D01*
X94185842Y-94291575D01*
X94142217Y-94236998D01*
X94135023Y-94167500D01*
X94166546Y-94105145D01*
X94185842Y-94088425D01*
X94340687Y-93980001D01*
X94371401Y-93958495D01*
X94538495Y-93791401D01*
X94674035Y-93597830D01*
X94773903Y-93383663D01*
X94835063Y-93155408D01*
X94855659Y-92920000D01*
X94835063Y-92684592D01*
X94773903Y-92456337D01*
X94674035Y-92242171D01*
X94538495Y-92048599D01*
X94538494Y-92048597D01*
X94371402Y-91881506D01*
X94371396Y-91881501D01*
X94185842Y-91751575D01*
X94142217Y-91696998D01*
X94135023Y-91627500D01*
X94166546Y-91565145D01*
X94185842Y-91548425D01*
X94331981Y-91446097D01*
X94371401Y-91418495D01*
X94538495Y-91251401D01*
X94674035Y-91057830D01*
X94773903Y-90843663D01*
X94835063Y-90615408D01*
X94855659Y-90380000D01*
X94835063Y-90144592D01*
X94773903Y-89916337D01*
X94674035Y-89702171D01*
X94569398Y-89552732D01*
X94538494Y-89508597D01*
X94371402Y-89341506D01*
X94371396Y-89341501D01*
X94185842Y-89211575D01*
X94142217Y-89156998D01*
X94135023Y-89087500D01*
X94166546Y-89025145D01*
X94185842Y-89008425D01*
X94340687Y-88900001D01*
X94340691Y-88899998D01*
X95214532Y-88899998D01*
X95214532Y-88900001D01*
X95234364Y-89126686D01*
X95234366Y-89126697D01*
X95293258Y-89346488D01*
X95293261Y-89346497D01*
X95389431Y-89552732D01*
X95389432Y-89552734D01*
X95519954Y-89739141D01*
X95680859Y-89900046D01*
X95716621Y-89925086D01*
X95760247Y-89979662D01*
X95769500Y-90026662D01*
X95769500Y-97933336D01*
X95749815Y-98000375D01*
X95716625Y-98034910D01*
X95680863Y-98059951D01*
X95519951Y-98220862D01*
X95389432Y-98407265D01*
X95389431Y-98407267D01*
X95293261Y-98613502D01*
X95293258Y-98613511D01*
X95234366Y-98833302D01*
X95234364Y-98833313D01*
X95214532Y-99059998D01*
X95214532Y-99060001D01*
X95234364Y-99286686D01*
X95234366Y-99286697D01*
X95293258Y-99506488D01*
X95293261Y-99506497D01*
X95389431Y-99712732D01*
X95389432Y-99712734D01*
X95519954Y-99899141D01*
X95680858Y-100060045D01*
X95680861Y-100060047D01*
X95867266Y-100190568D01*
X96073504Y-100286739D01*
X96293308Y-100345635D01*
X96455230Y-100359801D01*
X96519998Y-100365468D01*
X96520000Y-100365468D01*
X96520002Y-100365468D01*
X96576673Y-100360509D01*
X96746692Y-100345635D01*
X96966496Y-100286739D01*
X97172734Y-100190568D01*
X97359139Y-100060047D01*
X97520047Y-99899139D01*
X97650568Y-99712734D01*
X97746739Y-99506496D01*
X97805635Y-99286692D01*
X97822634Y-99092384D01*
X97825468Y-99060001D01*
X97825468Y-99059998D01*
X97817947Y-98974032D01*
X97805635Y-98833308D01*
X97746739Y-98613504D01*
X97650568Y-98407266D01*
X97550017Y-98263663D01*
X97520048Y-98220862D01*
X97520047Y-98220861D01*
X97359139Y-98059953D01*
X97354373Y-98056615D01*
X97323375Y-98034910D01*
X97279751Y-97980332D01*
X97270500Y-97933336D01*
X97270500Y-90026662D01*
X97290185Y-89959623D01*
X97323379Y-89925086D01*
X97359140Y-89900046D01*
X97520045Y-89739141D01*
X97520047Y-89739139D01*
X97650568Y-89552734D01*
X97746739Y-89346496D01*
X97805635Y-89126692D01*
X97825468Y-88900000D01*
X97805635Y-88673308D01*
X97746739Y-88453504D01*
X97650568Y-88247266D01*
X97520047Y-88060861D01*
X97520045Y-88060858D01*
X97359141Y-87899954D01*
X97172734Y-87769432D01*
X97172732Y-87769431D01*
X96966497Y-87673261D01*
X96966488Y-87673258D01*
X96746697Y-87614366D01*
X96746693Y-87614365D01*
X96746692Y-87614365D01*
X96746691Y-87614364D01*
X96746686Y-87614364D01*
X96520002Y-87594532D01*
X96519998Y-87594532D01*
X96293313Y-87614364D01*
X96293302Y-87614366D01*
X96073511Y-87673258D01*
X96073502Y-87673261D01*
X95867267Y-87769431D01*
X95867265Y-87769432D01*
X95680858Y-87899954D01*
X95519954Y-88060858D01*
X95389432Y-88247265D01*
X95389431Y-88247267D01*
X95293261Y-88453502D01*
X95293258Y-88453511D01*
X95234366Y-88673302D01*
X95234364Y-88673313D01*
X95214532Y-88899998D01*
X94340691Y-88899998D01*
X94371401Y-88878495D01*
X94538495Y-88711401D01*
X94674035Y-88517830D01*
X94773903Y-88303663D01*
X94835063Y-88075408D01*
X94855659Y-87840000D01*
X94835063Y-87604592D01*
X94773903Y-87376337D01*
X94674035Y-87162171D01*
X94620330Y-87085471D01*
X94538494Y-86968597D01*
X94371402Y-86801506D01*
X94371396Y-86801501D01*
X94185842Y-86671575D01*
X94142217Y-86616998D01*
X94135023Y-86547500D01*
X94166546Y-86485145D01*
X94185842Y-86468425D01*
X94265481Y-86412661D01*
X94371401Y-86338495D01*
X94538495Y-86171401D01*
X94674035Y-85977830D01*
X94773903Y-85763663D01*
X94835063Y-85535408D01*
X94837099Y-85512135D01*
X100379500Y-85512135D01*
X100379500Y-87207870D01*
X100379501Y-87207876D01*
X100385908Y-87267483D01*
X100436202Y-87402328D01*
X100436206Y-87402335D01*
X100522452Y-87517544D01*
X100522455Y-87517547D01*
X100637664Y-87603793D01*
X100637671Y-87603797D01*
X100772517Y-87654091D01*
X100772516Y-87654091D01*
X100779444Y-87654835D01*
X100832127Y-87660500D01*
X102527872Y-87660499D01*
X102587483Y-87654091D01*
X102722331Y-87603796D01*
X102837546Y-87517546D01*
X102923796Y-87402331D01*
X102974091Y-87267483D01*
X102980500Y-87207873D01*
X102980499Y-86359997D01*
X105375034Y-86359997D01*
X105375034Y-86360002D01*
X105394858Y-86586599D01*
X105394860Y-86586610D01*
X105453730Y-86806317D01*
X105453735Y-86806331D01*
X105549863Y-87012478D01*
X105600974Y-87085472D01*
X106280000Y-86406446D01*
X106280000Y-86412661D01*
X106307259Y-86514394D01*
X106359920Y-86605606D01*
X106434394Y-86680080D01*
X106525606Y-86732741D01*
X106627339Y-86760000D01*
X106633553Y-86760000D01*
X105954526Y-87439025D01*
X106027513Y-87490132D01*
X106027521Y-87490136D01*
X106233668Y-87586264D01*
X106233682Y-87586269D01*
X106453389Y-87645139D01*
X106453400Y-87645141D01*
X106679998Y-87664966D01*
X106680002Y-87664966D01*
X106906599Y-87645141D01*
X106906610Y-87645139D01*
X107126317Y-87586269D01*
X107126331Y-87586264D01*
X107332478Y-87490136D01*
X107405471Y-87439024D01*
X106726447Y-86760000D01*
X106732661Y-86760000D01*
X106834394Y-86732741D01*
X106925606Y-86680080D01*
X107000080Y-86605606D01*
X107052741Y-86514394D01*
X107080000Y-86412661D01*
X107080000Y-86406447D01*
X107759024Y-87085471D01*
X107810136Y-87012478D01*
X107906264Y-86806331D01*
X107906269Y-86806317D01*
X107965139Y-86586610D01*
X107965141Y-86586599D01*
X107984966Y-86360002D01*
X107984966Y-86359997D01*
X107965141Y-86133400D01*
X107965139Y-86133389D01*
X107906269Y-85913682D01*
X107906264Y-85913668D01*
X107810136Y-85707521D01*
X107810132Y-85707513D01*
X107759025Y-85634526D01*
X107080000Y-86313551D01*
X107080000Y-86307339D01*
X107052741Y-86205606D01*
X107000080Y-86114394D01*
X106925606Y-86039920D01*
X106834394Y-85987259D01*
X106732661Y-85960000D01*
X106726448Y-85960000D01*
X107405472Y-85280974D01*
X107332478Y-85229863D01*
X107126331Y-85133735D01*
X107126317Y-85133730D01*
X106906610Y-85074860D01*
X106906599Y-85074858D01*
X106680002Y-85055034D01*
X106679998Y-85055034D01*
X106453400Y-85074858D01*
X106453389Y-85074860D01*
X106233682Y-85133730D01*
X106233673Y-85133734D01*
X106027516Y-85229866D01*
X106027512Y-85229868D01*
X105954526Y-85280973D01*
X105954526Y-85280974D01*
X106633553Y-85960000D01*
X106627339Y-85960000D01*
X106525606Y-85987259D01*
X106434394Y-86039920D01*
X106359920Y-86114394D01*
X106307259Y-86205606D01*
X106280000Y-86307339D01*
X106280000Y-86313552D01*
X105600974Y-85634526D01*
X105600973Y-85634526D01*
X105549868Y-85707512D01*
X105549866Y-85707516D01*
X105453734Y-85913673D01*
X105453730Y-85913682D01*
X105394860Y-86133389D01*
X105394858Y-86133400D01*
X105375034Y-86359997D01*
X102980499Y-86359997D01*
X102980499Y-85512128D01*
X102974091Y-85452517D01*
X102930226Y-85334910D01*
X102923797Y-85317671D01*
X102923793Y-85317664D01*
X102837547Y-85202455D01*
X102837544Y-85202452D01*
X102722335Y-85116206D01*
X102722328Y-85116202D01*
X102587482Y-85065908D01*
X102587483Y-85065908D01*
X102527883Y-85059501D01*
X102527881Y-85059500D01*
X102527873Y-85059500D01*
X102527864Y-85059500D01*
X100832129Y-85059500D01*
X100832123Y-85059501D01*
X100772516Y-85065908D01*
X100637671Y-85116202D01*
X100637664Y-85116206D01*
X100522455Y-85202452D01*
X100522452Y-85202455D01*
X100436206Y-85317664D01*
X100436202Y-85317671D01*
X100385908Y-85452517D01*
X100379501Y-85512116D01*
X100379501Y-85512123D01*
X100379500Y-85512135D01*
X94837099Y-85512135D01*
X94855659Y-85300000D01*
X94835063Y-85064592D01*
X94773903Y-84836337D01*
X94674035Y-84622171D01*
X94538495Y-84428599D01*
X94538494Y-84428597D01*
X94371402Y-84261506D01*
X94371396Y-84261501D01*
X94185842Y-84131575D01*
X94142217Y-84076998D01*
X94135023Y-84007500D01*
X94166546Y-83945145D01*
X94185842Y-83928425D01*
X94208026Y-83912891D01*
X94371401Y-83798495D01*
X94538495Y-83631401D01*
X94674035Y-83437830D01*
X94773903Y-83223663D01*
X94835063Y-82995408D01*
X94855659Y-82760000D01*
X94835063Y-82524592D01*
X94773903Y-82296337D01*
X94674035Y-82082171D01*
X94586971Y-81957829D01*
X94538494Y-81888597D01*
X94371402Y-81721506D01*
X94371396Y-81721501D01*
X94185842Y-81591575D01*
X94142217Y-81536998D01*
X94135023Y-81467500D01*
X94166546Y-81405145D01*
X94185842Y-81388425D01*
X94340687Y-81280001D01*
X94371401Y-81258495D01*
X94538495Y-81091401D01*
X94674035Y-80897830D01*
X94773903Y-80683663D01*
X94835063Y-80455408D01*
X94855659Y-80220000D01*
X94835063Y-79984592D01*
X94773903Y-79756337D01*
X94674035Y-79542171D01*
X94538495Y-79348599D01*
X94538494Y-79348597D01*
X94371402Y-79181506D01*
X94371396Y-79181501D01*
X94185842Y-79051575D01*
X94142217Y-78996998D01*
X94135023Y-78927500D01*
X94166546Y-78865145D01*
X94185842Y-78848425D01*
X94235123Y-78813918D01*
X94371401Y-78718495D01*
X94538495Y-78551401D01*
X94674035Y-78357830D01*
X94773903Y-78143663D01*
X94835063Y-77915408D01*
X94855659Y-77680000D01*
X94835063Y-77444592D01*
X94773903Y-77216337D01*
X94674035Y-77002171D01*
X94569398Y-76852732D01*
X94538494Y-76808597D01*
X94371402Y-76641506D01*
X94371396Y-76641501D01*
X94185842Y-76511575D01*
X94142217Y-76456998D01*
X94135023Y-76387500D01*
X94166546Y-76325145D01*
X94185842Y-76308425D01*
X94208026Y-76292891D01*
X94371401Y-76178495D01*
X94538495Y-76011401D01*
X94674035Y-75817830D01*
X94773903Y-75603663D01*
X94835063Y-75375408D01*
X94855659Y-75140000D01*
X94835063Y-74904592D01*
X94773903Y-74676337D01*
X94674035Y-74462171D01*
X94538495Y-74268599D01*
X94538494Y-74268597D01*
X94371402Y-74101506D01*
X94371396Y-74101501D01*
X94185842Y-73971575D01*
X94142217Y-73916998D01*
X94135023Y-73847500D01*
X94166546Y-73785145D01*
X94185842Y-73768425D01*
X94208026Y-73752891D01*
X94371401Y-73638495D01*
X94538495Y-73471401D01*
X94674035Y-73277830D01*
X94773903Y-73063663D01*
X94835063Y-72835408D01*
X94855659Y-72600000D01*
X94835063Y-72364592D01*
X94773903Y-72136337D01*
X94674035Y-71922171D01*
X94623151Y-71849500D01*
X94538494Y-71728597D01*
X94371402Y-71561506D01*
X94371396Y-71561501D01*
X94185842Y-71431575D01*
X94142217Y-71376998D01*
X94135023Y-71307500D01*
X94166546Y-71245145D01*
X94185842Y-71228425D01*
X94340687Y-71120001D01*
X94371401Y-71098495D01*
X94538495Y-70931401D01*
X94674035Y-70737830D01*
X94773903Y-70523663D01*
X94835063Y-70295408D01*
X94855659Y-70060000D01*
X94835063Y-69824592D01*
X94773903Y-69596337D01*
X94674035Y-69382171D01*
X94569398Y-69232732D01*
X94538494Y-69188597D01*
X94371402Y-69021506D01*
X94371396Y-69021501D01*
X94185842Y-68891575D01*
X94142217Y-68836998D01*
X94135023Y-68767500D01*
X94166546Y-68705145D01*
X94185842Y-68688425D01*
X94340687Y-68580001D01*
X94371401Y-68558495D01*
X94538495Y-68391401D01*
X94674035Y-68197830D01*
X94773903Y-67983663D01*
X94835063Y-67755408D01*
X94855659Y-67520000D01*
X94835063Y-67284592D01*
X94773903Y-67056337D01*
X94674035Y-66842171D01*
X94538495Y-66648599D01*
X94538494Y-66648597D01*
X94371402Y-66481506D01*
X94371396Y-66481501D01*
X94185842Y-66351575D01*
X94142217Y-66296998D01*
X94135023Y-66227500D01*
X94166546Y-66165145D01*
X94185842Y-66148425D01*
X94208026Y-66132891D01*
X94371401Y-66018495D01*
X94538495Y-65851401D01*
X94674035Y-65657830D01*
X94773903Y-65443663D01*
X94835063Y-65215408D01*
X94855659Y-64980000D01*
X94835063Y-64744592D01*
X94773903Y-64516337D01*
X94674035Y-64302171D01*
X94538495Y-64108599D01*
X94538494Y-64108597D01*
X94371402Y-63941506D01*
X94371396Y-63941501D01*
X94185842Y-63811575D01*
X94142217Y-63756998D01*
X94135023Y-63687500D01*
X94166546Y-63625145D01*
X94185842Y-63608425D01*
X94331714Y-63506284D01*
X94371401Y-63478495D01*
X94538495Y-63311401D01*
X94674035Y-63117830D01*
X94773903Y-62903663D01*
X94835063Y-62675408D01*
X94855659Y-62440000D01*
X94835063Y-62204592D01*
X94773903Y-61976337D01*
X94674035Y-61762171D01*
X94569398Y-61612732D01*
X94538494Y-61568597D01*
X94371402Y-61401506D01*
X94371396Y-61401501D01*
X94185842Y-61271575D01*
X94142217Y-61216998D01*
X94135023Y-61147500D01*
X94166546Y-61085145D01*
X94185842Y-61068425D01*
X94340687Y-60960001D01*
X94371401Y-60938495D01*
X94538495Y-60771401D01*
X94674035Y-60577830D01*
X94773903Y-60363663D01*
X94835063Y-60135408D01*
X94855659Y-59900000D01*
X94835063Y-59664592D01*
X94773903Y-59436337D01*
X94674035Y-59222171D01*
X94538495Y-59028599D01*
X94538494Y-59028597D01*
X94371402Y-58861506D01*
X94371396Y-58861501D01*
X94185842Y-58731575D01*
X94142217Y-58676998D01*
X94135023Y-58607500D01*
X94166546Y-58545145D01*
X94185842Y-58528425D01*
X94208026Y-58512891D01*
X94371401Y-58398495D01*
X94538495Y-58231401D01*
X94674035Y-58037830D01*
X94773903Y-57823663D01*
X94835063Y-57595408D01*
X94855659Y-57360000D01*
X94835063Y-57124592D01*
X94773903Y-56896337D01*
X94674035Y-56682171D01*
X94574487Y-56540000D01*
X94538494Y-56488597D01*
X94371402Y-56321506D01*
X94371396Y-56321501D01*
X94185842Y-56191575D01*
X94142217Y-56136998D01*
X94135023Y-56067500D01*
X94166546Y-56005145D01*
X94185842Y-55988425D01*
X94208026Y-55972891D01*
X94371401Y-55858495D01*
X94538495Y-55691401D01*
X94674035Y-55497830D01*
X94773903Y-55283663D01*
X94835063Y-55055408D01*
X94855659Y-54820000D01*
X94835063Y-54584592D01*
X94773903Y-54356337D01*
X94674035Y-54142171D01*
X94574487Y-54000000D01*
X94538494Y-53948597D01*
X94371402Y-53781506D01*
X94371396Y-53781501D01*
X94185842Y-53651575D01*
X94142217Y-53596998D01*
X94135023Y-53527500D01*
X94166546Y-53465145D01*
X94185842Y-53448425D01*
X94208026Y-53432891D01*
X94371401Y-53318495D01*
X94538495Y-53151401D01*
X94674035Y-52957830D01*
X94773903Y-52743663D01*
X94835063Y-52515408D01*
X94855659Y-52280000D01*
X94855659Y-52279999D01*
X112144341Y-52279999D01*
X112144341Y-52280000D01*
X112164936Y-52515403D01*
X112164938Y-52515413D01*
X112226094Y-52743655D01*
X112226096Y-52743659D01*
X112226097Y-52743663D01*
X112264475Y-52825965D01*
X112325965Y-52957830D01*
X112325967Y-52957834D01*
X112434281Y-53112521D01*
X112445537Y-53128597D01*
X112461501Y-53151395D01*
X112461506Y-53151402D01*
X112628597Y-53318493D01*
X112628603Y-53318498D01*
X112814158Y-53448425D01*
X112857783Y-53503002D01*
X112864977Y-53572500D01*
X112833454Y-53634855D01*
X112814158Y-53651575D01*
X112628597Y-53781505D01*
X112461505Y-53948597D01*
X112325965Y-54142169D01*
X112325964Y-54142171D01*
X112226098Y-54356335D01*
X112226094Y-54356344D01*
X112164938Y-54584586D01*
X112164936Y-54584596D01*
X112144341Y-54819999D01*
X112144341Y-54820000D01*
X112164936Y-55055403D01*
X112164938Y-55055413D01*
X112226094Y-55283655D01*
X112226096Y-55283659D01*
X112226097Y-55283663D01*
X112264475Y-55365965D01*
X112325965Y-55497830D01*
X112325967Y-55497834D01*
X112434281Y-55652521D01*
X112445537Y-55668597D01*
X112461501Y-55691395D01*
X112461506Y-55691402D01*
X112628597Y-55858493D01*
X112628603Y-55858498D01*
X112814158Y-55988425D01*
X112857783Y-56043002D01*
X112864977Y-56112500D01*
X112833454Y-56174855D01*
X112814158Y-56191575D01*
X112628597Y-56321505D01*
X112461505Y-56488597D01*
X112325965Y-56682169D01*
X112325964Y-56682171D01*
X112226098Y-56896335D01*
X112226094Y-56896344D01*
X112164938Y-57124586D01*
X112164936Y-57124596D01*
X112144341Y-57359999D01*
X112144341Y-57360000D01*
X112164936Y-57595403D01*
X112164938Y-57595413D01*
X112226094Y-57823655D01*
X112226096Y-57823659D01*
X112226097Y-57823663D01*
X112325965Y-58037830D01*
X112325967Y-58037834D01*
X112461501Y-58231395D01*
X112461506Y-58231402D01*
X112628597Y-58398493D01*
X112628603Y-58398498D01*
X112814158Y-58528425D01*
X112857783Y-58583002D01*
X112864977Y-58652500D01*
X112833454Y-58714855D01*
X112814158Y-58731575D01*
X112628597Y-58861505D01*
X112461505Y-59028597D01*
X112325965Y-59222169D01*
X112325964Y-59222171D01*
X112226098Y-59436335D01*
X112226094Y-59436344D01*
X112164938Y-59664586D01*
X112164936Y-59664596D01*
X112144341Y-59899999D01*
X112144341Y-59900000D01*
X112164936Y-60135403D01*
X112164938Y-60135413D01*
X112226094Y-60363655D01*
X112226096Y-60363659D01*
X112226097Y-60363663D01*
X112325965Y-60577830D01*
X112325967Y-60577834D01*
X112461501Y-60771395D01*
X112461506Y-60771402D01*
X112628597Y-60938493D01*
X112628603Y-60938498D01*
X112814158Y-61068425D01*
X112857783Y-61123002D01*
X112864977Y-61192500D01*
X112833454Y-61254855D01*
X112814158Y-61271575D01*
X112628597Y-61401505D01*
X112461505Y-61568597D01*
X112325965Y-61762169D01*
X112325964Y-61762171D01*
X112226098Y-61976335D01*
X112226094Y-61976344D01*
X112164938Y-62204586D01*
X112164936Y-62204596D01*
X112144341Y-62439999D01*
X112144341Y-62440000D01*
X112164936Y-62675403D01*
X112164938Y-62675413D01*
X112226094Y-62903655D01*
X112226096Y-62903659D01*
X112226097Y-62903663D01*
X112232490Y-62917372D01*
X112325965Y-63117830D01*
X112325967Y-63117834D01*
X112461501Y-63311395D01*
X112461506Y-63311402D01*
X112628597Y-63478493D01*
X112628603Y-63478498D01*
X112814158Y-63608425D01*
X112857783Y-63663002D01*
X112864977Y-63732500D01*
X112833454Y-63794855D01*
X112814158Y-63811575D01*
X112628597Y-63941505D01*
X112461505Y-64108597D01*
X112325965Y-64302169D01*
X112325964Y-64302171D01*
X112226098Y-64516335D01*
X112226094Y-64516344D01*
X112164938Y-64744586D01*
X112164936Y-64744596D01*
X112144341Y-64979999D01*
X112144341Y-64980000D01*
X112164936Y-65215403D01*
X112164938Y-65215413D01*
X112226094Y-65443655D01*
X112226096Y-65443659D01*
X112226097Y-65443663D01*
X112325965Y-65657830D01*
X112325967Y-65657834D01*
X112461501Y-65851395D01*
X112461506Y-65851402D01*
X112628597Y-66018493D01*
X112628603Y-66018498D01*
X112814158Y-66148425D01*
X112857783Y-66203002D01*
X112864977Y-66272500D01*
X112833454Y-66334855D01*
X112814158Y-66351575D01*
X112628597Y-66481505D01*
X112461505Y-66648597D01*
X112325965Y-66842169D01*
X112325964Y-66842171D01*
X112226098Y-67056335D01*
X112226094Y-67056344D01*
X112164938Y-67284586D01*
X112164936Y-67284596D01*
X112144341Y-67519999D01*
X112144341Y-67520000D01*
X112164936Y-67755403D01*
X112164938Y-67755413D01*
X112226094Y-67983655D01*
X112226096Y-67983659D01*
X112226097Y-67983663D01*
X112325965Y-68197830D01*
X112325967Y-68197834D01*
X112461501Y-68391395D01*
X112461506Y-68391402D01*
X112628597Y-68558493D01*
X112628603Y-68558498D01*
X112814158Y-68688425D01*
X112857783Y-68743002D01*
X112864977Y-68812500D01*
X112833454Y-68874855D01*
X112814158Y-68891575D01*
X112628597Y-69021505D01*
X112461505Y-69188597D01*
X112325965Y-69382169D01*
X112325964Y-69382171D01*
X112226098Y-69596335D01*
X112226094Y-69596344D01*
X112164938Y-69824586D01*
X112164936Y-69824596D01*
X112144341Y-70059999D01*
X112144341Y-70060000D01*
X112164936Y-70295403D01*
X112164938Y-70295413D01*
X112226094Y-70523655D01*
X112226096Y-70523659D01*
X112226097Y-70523663D01*
X112325965Y-70737830D01*
X112325967Y-70737834D01*
X112461501Y-70931395D01*
X112461506Y-70931402D01*
X112628597Y-71098493D01*
X112628603Y-71098498D01*
X112814158Y-71228425D01*
X112857783Y-71283002D01*
X112864977Y-71352500D01*
X112833454Y-71414855D01*
X112814158Y-71431575D01*
X112628597Y-71561505D01*
X112461505Y-71728597D01*
X112325965Y-71922169D01*
X112325964Y-71922171D01*
X112226098Y-72136335D01*
X112226094Y-72136344D01*
X112164938Y-72364586D01*
X112164936Y-72364596D01*
X112144341Y-72599999D01*
X112144341Y-72600000D01*
X112164936Y-72835403D01*
X112164938Y-72835413D01*
X112226094Y-73063655D01*
X112226096Y-73063659D01*
X112226097Y-73063663D01*
X112325965Y-73277830D01*
X112325967Y-73277834D01*
X112461501Y-73471395D01*
X112461506Y-73471402D01*
X112628597Y-73638493D01*
X112628603Y-73638498D01*
X112814158Y-73768425D01*
X112857783Y-73823002D01*
X112864977Y-73892500D01*
X112833454Y-73954855D01*
X112814158Y-73971575D01*
X112628597Y-74101505D01*
X112461505Y-74268597D01*
X112325965Y-74462169D01*
X112325964Y-74462171D01*
X112226098Y-74676335D01*
X112226094Y-74676344D01*
X112164938Y-74904586D01*
X112164936Y-74904596D01*
X112144341Y-75139999D01*
X112144341Y-75140000D01*
X112164936Y-75375403D01*
X112164938Y-75375413D01*
X112226094Y-75603655D01*
X112226096Y-75603659D01*
X112226097Y-75603663D01*
X112307289Y-75777779D01*
X112325965Y-75817830D01*
X112325967Y-75817834D01*
X112461501Y-76011395D01*
X112461506Y-76011402D01*
X112628597Y-76178493D01*
X112628603Y-76178498D01*
X112814158Y-76308425D01*
X112857783Y-76363002D01*
X112864977Y-76432500D01*
X112833454Y-76494855D01*
X112814158Y-76511575D01*
X112628597Y-76641505D01*
X112461505Y-76808597D01*
X112325965Y-77002169D01*
X112325964Y-77002171D01*
X112226098Y-77216335D01*
X112226094Y-77216344D01*
X112164938Y-77444586D01*
X112164936Y-77444596D01*
X112144341Y-77679999D01*
X112144341Y-77680000D01*
X112164936Y-77915403D01*
X112164938Y-77915413D01*
X112226094Y-78143655D01*
X112226096Y-78143659D01*
X112226097Y-78143663D01*
X112325965Y-78357830D01*
X112325967Y-78357834D01*
X112461501Y-78551395D01*
X112461506Y-78551402D01*
X112628597Y-78718493D01*
X112628603Y-78718498D01*
X112814158Y-78848425D01*
X112857783Y-78903002D01*
X112864977Y-78972500D01*
X112833454Y-79034855D01*
X112814158Y-79051575D01*
X112628597Y-79181505D01*
X112461505Y-79348597D01*
X112325965Y-79542169D01*
X112325964Y-79542171D01*
X112226098Y-79756335D01*
X112226094Y-79756344D01*
X112164938Y-79984586D01*
X112164936Y-79984596D01*
X112144341Y-80219999D01*
X112144341Y-80220000D01*
X112164936Y-80455403D01*
X112164938Y-80455413D01*
X112226094Y-80683655D01*
X112226096Y-80683659D01*
X112226097Y-80683663D01*
X112295969Y-80833504D01*
X112325965Y-80897830D01*
X112325967Y-80897834D01*
X112461501Y-81091395D01*
X112461506Y-81091402D01*
X112628597Y-81258493D01*
X112628603Y-81258498D01*
X112814158Y-81388425D01*
X112857783Y-81443002D01*
X112864977Y-81512500D01*
X112833454Y-81574855D01*
X112814158Y-81591575D01*
X112628597Y-81721505D01*
X112461505Y-81888597D01*
X112325965Y-82082169D01*
X112325964Y-82082171D01*
X112226098Y-82296335D01*
X112226094Y-82296344D01*
X112164938Y-82524586D01*
X112164936Y-82524596D01*
X112144341Y-82759999D01*
X112144341Y-82760000D01*
X112164936Y-82995403D01*
X112164938Y-82995413D01*
X112226094Y-83223655D01*
X112226096Y-83223659D01*
X112226097Y-83223663D01*
X112325965Y-83437830D01*
X112325967Y-83437834D01*
X112461501Y-83631395D01*
X112461506Y-83631402D01*
X112628597Y-83798493D01*
X112628603Y-83798498D01*
X112814158Y-83928425D01*
X112857783Y-83983002D01*
X112864977Y-84052500D01*
X112833454Y-84114855D01*
X112814158Y-84131575D01*
X112628597Y-84261505D01*
X112461505Y-84428597D01*
X112325965Y-84622169D01*
X112325964Y-84622171D01*
X112226098Y-84836335D01*
X112226094Y-84836344D01*
X112164938Y-85064586D01*
X112164936Y-85064596D01*
X112144341Y-85299999D01*
X112144341Y-85300000D01*
X112164936Y-85535403D01*
X112164938Y-85535413D01*
X112226094Y-85763655D01*
X112226096Y-85763659D01*
X112226097Y-85763663D01*
X112296046Y-85913668D01*
X112325965Y-85977830D01*
X112325967Y-85977834D01*
X112461501Y-86171395D01*
X112461506Y-86171402D01*
X112628597Y-86338493D01*
X112628603Y-86338498D01*
X112814158Y-86468425D01*
X112857783Y-86523002D01*
X112864977Y-86592500D01*
X112833454Y-86654855D01*
X112814158Y-86671575D01*
X112628597Y-86801505D01*
X112461505Y-86968597D01*
X112325965Y-87162169D01*
X112325964Y-87162171D01*
X112226098Y-87376335D01*
X112226094Y-87376344D01*
X112164938Y-87604586D01*
X112164936Y-87604596D01*
X112144341Y-87839999D01*
X112144341Y-87840000D01*
X112164936Y-88075403D01*
X112164938Y-88075413D01*
X112226094Y-88303655D01*
X112226096Y-88303659D01*
X112226097Y-88303663D01*
X112325965Y-88517830D01*
X112325967Y-88517834D01*
X112461501Y-88711395D01*
X112461506Y-88711402D01*
X112628597Y-88878493D01*
X112628603Y-88878498D01*
X112814158Y-89008425D01*
X112857783Y-89063002D01*
X112864977Y-89132500D01*
X112833454Y-89194855D01*
X112814158Y-89211575D01*
X112628597Y-89341505D01*
X112461505Y-89508597D01*
X112325965Y-89702169D01*
X112325964Y-89702171D01*
X112226098Y-89916335D01*
X112226094Y-89916344D01*
X112164938Y-90144586D01*
X112164936Y-90144596D01*
X112144341Y-90379999D01*
X112144341Y-90380000D01*
X112164936Y-90615403D01*
X112164938Y-90615413D01*
X112226094Y-90843655D01*
X112226096Y-90843659D01*
X112226097Y-90843663D01*
X112281085Y-90961584D01*
X112325965Y-91057830D01*
X112325967Y-91057834D01*
X112461501Y-91251395D01*
X112461506Y-91251402D01*
X112628597Y-91418493D01*
X112628603Y-91418498D01*
X112814158Y-91548425D01*
X112857783Y-91603002D01*
X112864977Y-91672500D01*
X112833454Y-91734855D01*
X112814158Y-91751575D01*
X112628597Y-91881505D01*
X112461505Y-92048597D01*
X112325965Y-92242169D01*
X112325964Y-92242171D01*
X112226098Y-92456335D01*
X112226094Y-92456344D01*
X112164938Y-92684586D01*
X112164936Y-92684596D01*
X112144341Y-92919999D01*
X112144341Y-92920000D01*
X112164936Y-93155403D01*
X112164938Y-93155413D01*
X112226094Y-93383655D01*
X112226096Y-93383659D01*
X112226097Y-93383663D01*
X112322964Y-93591395D01*
X112325965Y-93597830D01*
X112325967Y-93597834D01*
X112461501Y-93791395D01*
X112461506Y-93791402D01*
X112628597Y-93958493D01*
X112628603Y-93958498D01*
X112814158Y-94088425D01*
X112857783Y-94143002D01*
X112864977Y-94212500D01*
X112833454Y-94274855D01*
X112814158Y-94291575D01*
X112628597Y-94421505D01*
X112461505Y-94588597D01*
X112325965Y-94782169D01*
X112325964Y-94782171D01*
X112226098Y-94996335D01*
X112226094Y-94996344D01*
X112164938Y-95224586D01*
X112164936Y-95224596D01*
X112144341Y-95459999D01*
X112144341Y-95460000D01*
X112164936Y-95695403D01*
X112164938Y-95695413D01*
X112226094Y-95923655D01*
X112226096Y-95923659D01*
X112226097Y-95923663D01*
X112322964Y-96131395D01*
X112325965Y-96137830D01*
X112325967Y-96137834D01*
X112461501Y-96331395D01*
X112461506Y-96331402D01*
X112628597Y-96498493D01*
X112628603Y-96498498D01*
X112814158Y-96628425D01*
X112857783Y-96683002D01*
X112864977Y-96752500D01*
X112833454Y-96814855D01*
X112814158Y-96831575D01*
X112628597Y-96961505D01*
X112461505Y-97128597D01*
X112325965Y-97322169D01*
X112325964Y-97322171D01*
X112226098Y-97536335D01*
X112226094Y-97536344D01*
X112164938Y-97764586D01*
X112164936Y-97764596D01*
X112144341Y-97999999D01*
X112144341Y-98000000D01*
X112164936Y-98235403D01*
X112164938Y-98235413D01*
X112226094Y-98463655D01*
X112226096Y-98463659D01*
X112226097Y-98463663D01*
X112322964Y-98671395D01*
X112325965Y-98677830D01*
X112325967Y-98677834D01*
X112434281Y-98832521D01*
X112461505Y-98871401D01*
X112628599Y-99038495D01*
X112659313Y-99060001D01*
X112822165Y-99174032D01*
X112822167Y-99174033D01*
X112822170Y-99174035D01*
X113036337Y-99273903D01*
X113264592Y-99335063D01*
X113452918Y-99351539D01*
X113499999Y-99355659D01*
X113500000Y-99355659D01*
X113500001Y-99355659D01*
X113539234Y-99352226D01*
X113735408Y-99335063D01*
X113963663Y-99273903D01*
X114177830Y-99174035D01*
X114371401Y-99038495D01*
X114538495Y-98871401D01*
X114674035Y-98677830D01*
X114773903Y-98463663D01*
X114835063Y-98235408D01*
X114855659Y-98000000D01*
X114835063Y-97764592D01*
X114773903Y-97536337D01*
X114674035Y-97322171D01*
X114538495Y-97128599D01*
X114538494Y-97128597D01*
X114371402Y-96961506D01*
X114371396Y-96961501D01*
X114185842Y-96831575D01*
X114142217Y-96776998D01*
X114135023Y-96707500D01*
X114166546Y-96645145D01*
X114185842Y-96628425D01*
X114326407Y-96530000D01*
X114371401Y-96498495D01*
X114538495Y-96331401D01*
X114674035Y-96137830D01*
X114773903Y-95923663D01*
X114835063Y-95695408D01*
X114855659Y-95460000D01*
X114835063Y-95224592D01*
X114773903Y-94996337D01*
X114674035Y-94782171D01*
X114569398Y-94632732D01*
X114538494Y-94588597D01*
X114371402Y-94421506D01*
X114371396Y-94421501D01*
X114185842Y-94291575D01*
X114142217Y-94236998D01*
X114135023Y-94167500D01*
X114166546Y-94105145D01*
X114185842Y-94088425D01*
X114340687Y-93980001D01*
X114371401Y-93958495D01*
X114538495Y-93791401D01*
X114674035Y-93597830D01*
X114773903Y-93383663D01*
X114835063Y-93155408D01*
X114855659Y-92920000D01*
X114838161Y-92719999D01*
X123129341Y-92719999D01*
X123129341Y-92720000D01*
X123149936Y-92955403D01*
X123149938Y-92955413D01*
X123211094Y-93183655D01*
X123211096Y-93183659D01*
X123211097Y-93183663D01*
X123278061Y-93327267D01*
X123310965Y-93397830D01*
X123310967Y-93397834D01*
X123446501Y-93591395D01*
X123446506Y-93591402D01*
X123613597Y-93758493D01*
X123613603Y-93758498D01*
X123799158Y-93888425D01*
X123842783Y-93943002D01*
X123849977Y-94012500D01*
X123818454Y-94074855D01*
X123799158Y-94091575D01*
X123613597Y-94221505D01*
X123446505Y-94388597D01*
X123310965Y-94582169D01*
X123310964Y-94582171D01*
X123211098Y-94796335D01*
X123211094Y-94796344D01*
X123149938Y-95024586D01*
X123149936Y-95024596D01*
X123129341Y-95259999D01*
X123129341Y-95260000D01*
X123149936Y-95495403D01*
X123149938Y-95495413D01*
X123211094Y-95723655D01*
X123211096Y-95723659D01*
X123211097Y-95723663D01*
X123304355Y-95923655D01*
X123310965Y-95937830D01*
X123310967Y-95937834D01*
X123446501Y-96131395D01*
X123446506Y-96131402D01*
X123613597Y-96298493D01*
X123613603Y-96298498D01*
X123799158Y-96428425D01*
X123842783Y-96483002D01*
X123849977Y-96552500D01*
X123818454Y-96614855D01*
X123799158Y-96631575D01*
X123613597Y-96761505D01*
X123446505Y-96928597D01*
X123310965Y-97122169D01*
X123310964Y-97122171D01*
X123211098Y-97336335D01*
X123211094Y-97336344D01*
X123149938Y-97564586D01*
X123149936Y-97564596D01*
X123129341Y-97799999D01*
X123129341Y-97800000D01*
X123149936Y-98035403D01*
X123149938Y-98035413D01*
X123211094Y-98263655D01*
X123211096Y-98263659D01*
X123211097Y-98263663D01*
X123278061Y-98407267D01*
X123310965Y-98477830D01*
X123310967Y-98477834D01*
X123405964Y-98613502D01*
X123446505Y-98671401D01*
X123613599Y-98838495D01*
X123660585Y-98871395D01*
X123807165Y-98974032D01*
X123807167Y-98974033D01*
X123807170Y-98974035D01*
X124021337Y-99073903D01*
X124249592Y-99135063D01*
X124437918Y-99151539D01*
X124484999Y-99155659D01*
X124485000Y-99155659D01*
X124485001Y-99155659D01*
X124524234Y-99152226D01*
X124720408Y-99135063D01*
X124948663Y-99073903D01*
X125162830Y-98974035D01*
X125356401Y-98838495D01*
X125523495Y-98671401D01*
X125659035Y-98477830D01*
X125758903Y-98263663D01*
X125820063Y-98035408D01*
X125840659Y-97800000D01*
X125837561Y-97764596D01*
X125820063Y-97564596D01*
X125820063Y-97564592D01*
X125758903Y-97336337D01*
X125659035Y-97122171D01*
X125546534Y-96961501D01*
X125523494Y-96928597D01*
X125356402Y-96761506D01*
X125356396Y-96761501D01*
X125170842Y-96631575D01*
X125127217Y-96576998D01*
X125120023Y-96507500D01*
X125151546Y-96445145D01*
X125170842Y-96428425D01*
X125193026Y-96412891D01*
X125356401Y-96298495D01*
X125523495Y-96131401D01*
X125659035Y-95937830D01*
X125758903Y-95723663D01*
X125820063Y-95495408D01*
X125840659Y-95260000D01*
X125837561Y-95224596D01*
X125820063Y-95024596D01*
X125820063Y-95024592D01*
X125758903Y-94796337D01*
X125659035Y-94582171D01*
X125550032Y-94426497D01*
X125523494Y-94388597D01*
X125356402Y-94221506D01*
X125356396Y-94221501D01*
X125170842Y-94091575D01*
X125127217Y-94036998D01*
X125120023Y-93967500D01*
X125151546Y-93905145D01*
X125170842Y-93888425D01*
X125193026Y-93872891D01*
X125356401Y-93758495D01*
X125523495Y-93591401D01*
X125659035Y-93397830D01*
X125758903Y-93183663D01*
X125820063Y-92955408D01*
X125840659Y-92720000D01*
X125837561Y-92684596D01*
X125820063Y-92484596D01*
X125820063Y-92484592D01*
X125758903Y-92256337D01*
X125659035Y-92042171D01*
X125523495Y-91848599D01*
X125401179Y-91726283D01*
X125367696Y-91664963D01*
X125372680Y-91595271D01*
X125414551Y-91539337D01*
X125445529Y-91522422D01*
X125577086Y-91473354D01*
X125577093Y-91473350D01*
X125692187Y-91387190D01*
X125692190Y-91387187D01*
X125778350Y-91272093D01*
X125778354Y-91272086D01*
X125828596Y-91137379D01*
X125828598Y-91137372D01*
X125834999Y-91077844D01*
X125835000Y-91077827D01*
X125835000Y-90430000D01*
X124918012Y-90430000D01*
X124950925Y-90372993D01*
X124985000Y-90245826D01*
X124985000Y-90114174D01*
X124950925Y-89987007D01*
X124918012Y-89930000D01*
X125835000Y-89930000D01*
X125835000Y-89282172D01*
X125834999Y-89282155D01*
X125828598Y-89222627D01*
X125828596Y-89222620D01*
X125778354Y-89087913D01*
X125778350Y-89087906D01*
X125692190Y-88972812D01*
X125692187Y-88972809D01*
X125577093Y-88886649D01*
X125577086Y-88886645D01*
X125442379Y-88836403D01*
X125442372Y-88836401D01*
X125382844Y-88830000D01*
X124735000Y-88830000D01*
X124735000Y-89746988D01*
X124677993Y-89714075D01*
X124550826Y-89680000D01*
X124419174Y-89680000D01*
X124292007Y-89714075D01*
X124235000Y-89746988D01*
X124235000Y-88830000D01*
X123587155Y-88830000D01*
X123527627Y-88836401D01*
X123527620Y-88836403D01*
X123392913Y-88886645D01*
X123392906Y-88886649D01*
X123277812Y-88972809D01*
X123277809Y-88972812D01*
X123191649Y-89087906D01*
X123191645Y-89087913D01*
X123141403Y-89222620D01*
X123141401Y-89222627D01*
X123135000Y-89282155D01*
X123135000Y-89930000D01*
X124051988Y-89930000D01*
X124019075Y-89987007D01*
X123985000Y-90114174D01*
X123985000Y-90245826D01*
X124019075Y-90372993D01*
X124051988Y-90430000D01*
X123135000Y-90430000D01*
X123135000Y-91077844D01*
X123141401Y-91137372D01*
X123141403Y-91137379D01*
X123191645Y-91272086D01*
X123191649Y-91272093D01*
X123277809Y-91387187D01*
X123277812Y-91387190D01*
X123392906Y-91473350D01*
X123392913Y-91473354D01*
X123524470Y-91522421D01*
X123580403Y-91564292D01*
X123604821Y-91629756D01*
X123589970Y-91698029D01*
X123568819Y-91726284D01*
X123446503Y-91848600D01*
X123310965Y-92042169D01*
X123310964Y-92042171D01*
X123211098Y-92256335D01*
X123211094Y-92256344D01*
X123149938Y-92484586D01*
X123149936Y-92484596D01*
X123129341Y-92719999D01*
X114838161Y-92719999D01*
X114835063Y-92684592D01*
X114773903Y-92456337D01*
X114674035Y-92242171D01*
X114538495Y-92048599D01*
X114538494Y-92048597D01*
X114371402Y-91881506D01*
X114371396Y-91881501D01*
X114185842Y-91751575D01*
X114142217Y-91696998D01*
X114135023Y-91627500D01*
X114166546Y-91565145D01*
X114185842Y-91548425D01*
X114331981Y-91446097D01*
X114371401Y-91418495D01*
X114538495Y-91251401D01*
X114674035Y-91057830D01*
X114773903Y-90843663D01*
X114835063Y-90615408D01*
X114855659Y-90380000D01*
X114835063Y-90144592D01*
X114773903Y-89916337D01*
X114674035Y-89702171D01*
X114569398Y-89552732D01*
X114538494Y-89508597D01*
X114371402Y-89341506D01*
X114371396Y-89341501D01*
X114185842Y-89211575D01*
X114142217Y-89156998D01*
X114135023Y-89087500D01*
X114166546Y-89025145D01*
X114185842Y-89008425D01*
X114340687Y-88900001D01*
X114371401Y-88878495D01*
X114538495Y-88711401D01*
X114674035Y-88517830D01*
X114773903Y-88303663D01*
X114835063Y-88075408D01*
X114855659Y-87840000D01*
X114835063Y-87604592D01*
X114773903Y-87376337D01*
X114674035Y-87162171D01*
X114620330Y-87085471D01*
X114538494Y-86968597D01*
X114371402Y-86801506D01*
X114371396Y-86801501D01*
X114185842Y-86671575D01*
X114142217Y-86616998D01*
X114135023Y-86547500D01*
X114166546Y-86485145D01*
X114185842Y-86468425D01*
X114265481Y-86412661D01*
X114371401Y-86338495D01*
X114538495Y-86171401D01*
X114674035Y-85977830D01*
X114773903Y-85763663D01*
X114835063Y-85535408D01*
X114855659Y-85300000D01*
X114835063Y-85064592D01*
X114773903Y-84836337D01*
X114674035Y-84622171D01*
X114538495Y-84428599D01*
X114538494Y-84428597D01*
X114371402Y-84261506D01*
X114371396Y-84261501D01*
X114185842Y-84131575D01*
X114142217Y-84076998D01*
X114135023Y-84007500D01*
X114166546Y-83945145D01*
X114185842Y-83928425D01*
X114208026Y-83912891D01*
X114371401Y-83798495D01*
X114538495Y-83631401D01*
X114674035Y-83437830D01*
X114773903Y-83223663D01*
X114835063Y-82995408D01*
X114855659Y-82760000D01*
X114835063Y-82524592D01*
X114773903Y-82296337D01*
X114674035Y-82082171D01*
X114586971Y-81957829D01*
X114538494Y-81888597D01*
X114371402Y-81721506D01*
X114371396Y-81721501D01*
X114185842Y-81591575D01*
X114142217Y-81536998D01*
X114135023Y-81467500D01*
X114166546Y-81405145D01*
X114185842Y-81388425D01*
X114340687Y-81280001D01*
X114371401Y-81258495D01*
X114538495Y-81091401D01*
X114674035Y-80897830D01*
X114773903Y-80683663D01*
X114835063Y-80455408D01*
X114855659Y-80220000D01*
X114835063Y-79984592D01*
X114773903Y-79756337D01*
X114674035Y-79542171D01*
X114538495Y-79348599D01*
X114538494Y-79348597D01*
X114371402Y-79181506D01*
X114371396Y-79181501D01*
X114185842Y-79051575D01*
X114142217Y-78996998D01*
X114135023Y-78927500D01*
X114166546Y-78865145D01*
X114185842Y-78848425D01*
X114235123Y-78813918D01*
X114371401Y-78718495D01*
X114538495Y-78551401D01*
X114674035Y-78357830D01*
X114773903Y-78143663D01*
X114835063Y-77915408D01*
X114855659Y-77680000D01*
X114835063Y-77444592D01*
X114773903Y-77216337D01*
X114674035Y-77002171D01*
X114569398Y-76852732D01*
X114538494Y-76808597D01*
X114371402Y-76641506D01*
X114371396Y-76641501D01*
X114185842Y-76511575D01*
X114142217Y-76456998D01*
X114135023Y-76387500D01*
X114166546Y-76325145D01*
X114185842Y-76308425D01*
X114208026Y-76292891D01*
X114371401Y-76178495D01*
X114538495Y-76011401D01*
X114674035Y-75817830D01*
X114773903Y-75603663D01*
X114835063Y-75375408D01*
X114855659Y-75140000D01*
X114835063Y-74904592D01*
X114773903Y-74676337D01*
X114674035Y-74462171D01*
X114538495Y-74268599D01*
X114538494Y-74268597D01*
X114371402Y-74101506D01*
X114371396Y-74101501D01*
X114185842Y-73971575D01*
X114142217Y-73916998D01*
X114135023Y-73847500D01*
X114166546Y-73785145D01*
X114185842Y-73768425D01*
X114208026Y-73752891D01*
X114371401Y-73638495D01*
X114538495Y-73471401D01*
X114586127Y-73403376D01*
X114640704Y-73359751D01*
X114687701Y-73350500D01*
X115417770Y-73350500D01*
X115484809Y-73370185D01*
X115505451Y-73386819D01*
X118593181Y-76474549D01*
X118626666Y-76535872D01*
X118629500Y-76562230D01*
X118629500Y-78813918D01*
X118629500Y-78813920D01*
X118629499Y-78813920D01*
X118658340Y-78958907D01*
X118658343Y-78958917D01*
X118714914Y-79095492D01*
X118747812Y-79144727D01*
X118747813Y-79144730D01*
X118797046Y-79218414D01*
X118797052Y-79218421D01*
X120593282Y-81014650D01*
X120626767Y-81075973D01*
X120629129Y-81113137D01*
X120614532Y-81279996D01*
X120614532Y-81280001D01*
X120634364Y-81506686D01*
X120634366Y-81506697D01*
X120693258Y-81726488D01*
X120693261Y-81726497D01*
X120789431Y-81932732D01*
X120789432Y-81932734D01*
X120919954Y-82119141D01*
X121080858Y-82280045D01*
X121080861Y-82280047D01*
X121267266Y-82410568D01*
X121473504Y-82506739D01*
X121693308Y-82565635D01*
X121855230Y-82579801D01*
X121919998Y-82585468D01*
X121920000Y-82585468D01*
X121920002Y-82585468D01*
X121976673Y-82580509D01*
X122146692Y-82565635D01*
X122366496Y-82506739D01*
X122572734Y-82410568D01*
X122759139Y-82280047D01*
X122920047Y-82119139D01*
X123050568Y-81932734D01*
X123050572Y-81932725D01*
X123053276Y-81928043D01*
X123054534Y-81928769D01*
X123096198Y-81881446D01*
X123163390Y-81862289D01*
X123230273Y-81882500D01*
X123274797Y-81933880D01*
X123285965Y-81957829D01*
X123285967Y-81957834D01*
X123421501Y-82151395D01*
X123421506Y-82151402D01*
X123588597Y-82318493D01*
X123588603Y-82318498D01*
X123774158Y-82448425D01*
X123817783Y-82503002D01*
X123824977Y-82572500D01*
X123793454Y-82634855D01*
X123774158Y-82651575D01*
X123588597Y-82781505D01*
X123421505Y-82948597D01*
X123285965Y-83142169D01*
X123285964Y-83142171D01*
X123186098Y-83356335D01*
X123186094Y-83356344D01*
X123124938Y-83584586D01*
X123124936Y-83584596D01*
X123104341Y-83819999D01*
X123104341Y-83820000D01*
X123124936Y-84055403D01*
X123124938Y-84055413D01*
X123186094Y-84283655D01*
X123186096Y-84283659D01*
X123186097Y-84283663D01*
X123253681Y-84428597D01*
X123285965Y-84497830D01*
X123285967Y-84497834D01*
X123394281Y-84652521D01*
X123421505Y-84691401D01*
X123588599Y-84858495D01*
X123685384Y-84926265D01*
X123782165Y-84994032D01*
X123782167Y-84994033D01*
X123782170Y-84994035D01*
X123996337Y-85093903D01*
X124224592Y-85155063D01*
X124412918Y-85171539D01*
X124459999Y-85175659D01*
X124460000Y-85175659D01*
X124460001Y-85175659D01*
X124499234Y-85172226D01*
X124695408Y-85155063D01*
X124923663Y-85093903D01*
X125137830Y-84994035D01*
X125331401Y-84858495D01*
X125498495Y-84691401D01*
X125634035Y-84497830D01*
X125733903Y-84283663D01*
X125795063Y-84055408D01*
X125815659Y-83820000D01*
X125795063Y-83584592D01*
X125733903Y-83356337D01*
X125634035Y-83142171D01*
X125531275Y-82995413D01*
X125498494Y-82948597D01*
X125331402Y-82781506D01*
X125331396Y-82781501D01*
X125145842Y-82651575D01*
X125102217Y-82596998D01*
X125095023Y-82527500D01*
X125126546Y-82465145D01*
X125145842Y-82448425D01*
X125199909Y-82410567D01*
X125331401Y-82318495D01*
X125498495Y-82151401D01*
X125634035Y-81957830D01*
X125733903Y-81743663D01*
X125795063Y-81515408D01*
X125815659Y-81280000D01*
X125795063Y-81044592D01*
X125733903Y-80816337D01*
X125634035Y-80602171D01*
X125531275Y-80455413D01*
X125498494Y-80408597D01*
X125331402Y-80241506D01*
X125331396Y-80241501D01*
X125145842Y-80111575D01*
X125102217Y-80056998D01*
X125095023Y-79987500D01*
X125126546Y-79925145D01*
X125145842Y-79908425D01*
X125168026Y-79892891D01*
X125331401Y-79778495D01*
X125498495Y-79611401D01*
X125634035Y-79417830D01*
X125733903Y-79203663D01*
X125795063Y-78975408D01*
X125815659Y-78740000D01*
X125795063Y-78504592D01*
X125733903Y-78276337D01*
X125634035Y-78062171D01*
X125531274Y-77915413D01*
X125498496Y-77868600D01*
X125498495Y-77868599D01*
X125376179Y-77746283D01*
X125342696Y-77684963D01*
X125347680Y-77615271D01*
X125389551Y-77559337D01*
X125420529Y-77542422D01*
X125552086Y-77493354D01*
X125552093Y-77493350D01*
X125667187Y-77407190D01*
X125667190Y-77407187D01*
X125753350Y-77292093D01*
X125753354Y-77292086D01*
X125803596Y-77157379D01*
X125803598Y-77157372D01*
X125809999Y-77097844D01*
X125810000Y-77097827D01*
X125810000Y-76450000D01*
X124893012Y-76450000D01*
X124925925Y-76392993D01*
X124960000Y-76265826D01*
X124960000Y-76199998D01*
X128234532Y-76199998D01*
X128234532Y-76200001D01*
X128254364Y-76426686D01*
X128254366Y-76426697D01*
X128313258Y-76646488D01*
X128313261Y-76646497D01*
X128409431Y-76852732D01*
X128409432Y-76852734D01*
X128539954Y-77039141D01*
X128700859Y-77200046D01*
X128736621Y-77225086D01*
X128780247Y-77279662D01*
X128789500Y-77326662D01*
X128789500Y-85233336D01*
X128769815Y-85300375D01*
X128736625Y-85334910D01*
X128700863Y-85359951D01*
X128539951Y-85520862D01*
X128409432Y-85707265D01*
X128409431Y-85707267D01*
X128313261Y-85913502D01*
X128313258Y-85913511D01*
X128254366Y-86133302D01*
X128254364Y-86133313D01*
X128234532Y-86359998D01*
X128234532Y-86360001D01*
X128254364Y-86586686D01*
X128254366Y-86586697D01*
X128313258Y-86806488D01*
X128313261Y-86806497D01*
X128409431Y-87012732D01*
X128409432Y-87012734D01*
X128539954Y-87199141D01*
X128700858Y-87360045D01*
X128700861Y-87360047D01*
X128887266Y-87490568D01*
X128945275Y-87517618D01*
X128997714Y-87563791D01*
X129016866Y-87630984D01*
X128996650Y-87697865D01*
X128945275Y-87742382D01*
X128887267Y-87769431D01*
X128887265Y-87769432D01*
X128700858Y-87899954D01*
X128539954Y-88060858D01*
X128409432Y-88247265D01*
X128409431Y-88247267D01*
X128313261Y-88453502D01*
X128313258Y-88453511D01*
X128254366Y-88673302D01*
X128254364Y-88673313D01*
X128234532Y-88899998D01*
X128234532Y-88900001D01*
X128254364Y-89126686D01*
X128254366Y-89126697D01*
X128313258Y-89346488D01*
X128313261Y-89346497D01*
X128409431Y-89552732D01*
X128409432Y-89552734D01*
X128539954Y-89739141D01*
X128700858Y-89900045D01*
X128700861Y-89900047D01*
X128887266Y-90030568D01*
X129093504Y-90126739D01*
X129313308Y-90185635D01*
X129475230Y-90199801D01*
X129539998Y-90205468D01*
X129540000Y-90205468D01*
X129540001Y-90205468D01*
X129560062Y-90203712D01*
X129706861Y-90190869D01*
X129775359Y-90204635D01*
X129805348Y-90226716D01*
X131293181Y-91714548D01*
X131326666Y-91775871D01*
X131329500Y-91802229D01*
X131329500Y-92853336D01*
X131309815Y-92920375D01*
X131276625Y-92954910D01*
X131240863Y-92979951D01*
X131079951Y-93140862D01*
X130949432Y-93327265D01*
X130949431Y-93327267D01*
X130853261Y-93533502D01*
X130853258Y-93533511D01*
X130794366Y-93753302D01*
X130794364Y-93753313D01*
X130774532Y-93979998D01*
X130774532Y-93980001D01*
X130794364Y-94206686D01*
X130794366Y-94206697D01*
X130853258Y-94426488D01*
X130853261Y-94426497D01*
X130949431Y-94632732D01*
X130949432Y-94632734D01*
X131079954Y-94819141D01*
X131240858Y-94980045D01*
X131240861Y-94980047D01*
X131427266Y-95110568D01*
X131633504Y-95206739D01*
X131853308Y-95265635D01*
X132015230Y-95279801D01*
X132079998Y-95285468D01*
X132080000Y-95285468D01*
X132080002Y-95285468D01*
X132136673Y-95280509D01*
X132306692Y-95265635D01*
X132526496Y-95206739D01*
X132732734Y-95110568D01*
X132919139Y-94980047D01*
X133080047Y-94819139D01*
X133210568Y-94632734D01*
X133306739Y-94426496D01*
X133365635Y-94206692D01*
X133385468Y-93980000D01*
X133384374Y-93967500D01*
X133377456Y-93888425D01*
X133365635Y-93753308D01*
X133306739Y-93533504D01*
X133210568Y-93327266D01*
X133110017Y-93183663D01*
X133080048Y-93140862D01*
X133080047Y-93140861D01*
X132919139Y-92979953D01*
X132914373Y-92976615D01*
X132883375Y-92954910D01*
X132839751Y-92900332D01*
X132830500Y-92853336D01*
X132830500Y-91366079D01*
X132801659Y-91221092D01*
X132801658Y-91221091D01*
X132801658Y-91221087D01*
X132766985Y-91137379D01*
X132745087Y-91084511D01*
X132745080Y-91084498D01*
X132662952Y-90961585D01*
X132662951Y-90961584D01*
X132558416Y-90857049D01*
X130866716Y-89165348D01*
X130833231Y-89104025D01*
X130830869Y-89066863D01*
X130845468Y-88900000D01*
X130825635Y-88673308D01*
X130766739Y-88453504D01*
X130670568Y-88247266D01*
X130540047Y-88060861D01*
X130540045Y-88060858D01*
X130379141Y-87899954D01*
X130192734Y-87769432D01*
X130192728Y-87769429D01*
X130134725Y-87742382D01*
X130082285Y-87696210D01*
X130063133Y-87629017D01*
X130083348Y-87562135D01*
X130134725Y-87517618D01*
X130192734Y-87490568D01*
X130379139Y-87360047D01*
X130540047Y-87199139D01*
X130670568Y-87012734D01*
X130766739Y-86806496D01*
X130825635Y-86586692D01*
X130845468Y-86360000D01*
X130825635Y-86133308D01*
X130766739Y-85913504D01*
X130670568Y-85707266D01*
X130605307Y-85614063D01*
X130540048Y-85520862D01*
X130471702Y-85452516D01*
X130379139Y-85359953D01*
X130374373Y-85356615D01*
X130343375Y-85334910D01*
X130299751Y-85280332D01*
X130290500Y-85233336D01*
X130290500Y-77326662D01*
X130310185Y-77259623D01*
X130343379Y-77225086D01*
X130379140Y-77200046D01*
X130540045Y-77039141D01*
X130540047Y-77039139D01*
X130670568Y-76852734D01*
X130766739Y-76646496D01*
X130825635Y-76426692D01*
X130845468Y-76200000D01*
X130825635Y-75973308D01*
X130773244Y-75777782D01*
X130766741Y-75753511D01*
X130766738Y-75753502D01*
X130751854Y-75721584D01*
X130670568Y-75547266D01*
X130540047Y-75360861D01*
X130540045Y-75360858D01*
X130379141Y-75199954D01*
X130192734Y-75069432D01*
X130192732Y-75069431D01*
X129986497Y-74973261D01*
X129986488Y-74973258D01*
X129766697Y-74914366D01*
X129766693Y-74914365D01*
X129766692Y-74914365D01*
X129766691Y-74914364D01*
X129766686Y-74914364D01*
X129540002Y-74894532D01*
X129539998Y-74894532D01*
X129313313Y-74914364D01*
X129313302Y-74914366D01*
X129093511Y-74973258D01*
X129093502Y-74973261D01*
X128887267Y-75069431D01*
X128887265Y-75069432D01*
X128700858Y-75199954D01*
X128539954Y-75360858D01*
X128409432Y-75547265D01*
X128409431Y-75547267D01*
X128313261Y-75753502D01*
X128313258Y-75753511D01*
X128254366Y-75973302D01*
X128254364Y-75973313D01*
X128234532Y-76199998D01*
X124960000Y-76199998D01*
X124960000Y-76134174D01*
X124925925Y-76007007D01*
X124893012Y-75950000D01*
X125810000Y-75950000D01*
X125810000Y-75302172D01*
X125809999Y-75302155D01*
X125803598Y-75242627D01*
X125803596Y-75242620D01*
X125753354Y-75107913D01*
X125753350Y-75107906D01*
X125667190Y-74992812D01*
X125667187Y-74992809D01*
X125552093Y-74906649D01*
X125552086Y-74906645D01*
X125417379Y-74856403D01*
X125417372Y-74856401D01*
X125357844Y-74850000D01*
X124710000Y-74850000D01*
X124710000Y-75766988D01*
X124652993Y-75734075D01*
X124525826Y-75700000D01*
X124394174Y-75700000D01*
X124267007Y-75734075D01*
X124210000Y-75766988D01*
X124210000Y-74850000D01*
X123562155Y-74850000D01*
X123502627Y-74856401D01*
X123502620Y-74856403D01*
X123367913Y-74906645D01*
X123367906Y-74906649D01*
X123252812Y-74992809D01*
X123252809Y-74992812D01*
X123166649Y-75107906D01*
X123166645Y-75107913D01*
X123116403Y-75242620D01*
X123116401Y-75242627D01*
X123110000Y-75302155D01*
X123110000Y-75950000D01*
X124026988Y-75950000D01*
X123994075Y-76007007D01*
X123960000Y-76134174D01*
X123960000Y-76265826D01*
X123994075Y-76392993D01*
X124026988Y-76450000D01*
X123110000Y-76450000D01*
X123110000Y-77097844D01*
X123116401Y-77157372D01*
X123116403Y-77157379D01*
X123166645Y-77292086D01*
X123166649Y-77292093D01*
X123252809Y-77407187D01*
X123252812Y-77407190D01*
X123367906Y-77493350D01*
X123367913Y-77493354D01*
X123499470Y-77542421D01*
X123555403Y-77584292D01*
X123579821Y-77649756D01*
X123564970Y-77718029D01*
X123543819Y-77746284D01*
X123421503Y-77868600D01*
X123285965Y-78062169D01*
X123285964Y-78062171D01*
X123186098Y-78276335D01*
X123186094Y-78276344D01*
X123124938Y-78504586D01*
X123124936Y-78504596D01*
X123104341Y-78739999D01*
X123104341Y-78740000D01*
X123124936Y-78975403D01*
X123124938Y-78975413D01*
X123186094Y-79203655D01*
X123186096Y-79203659D01*
X123186097Y-79203663D01*
X123192979Y-79218421D01*
X123285965Y-79417830D01*
X123285967Y-79417834D01*
X123421501Y-79611395D01*
X123421506Y-79611402D01*
X123588597Y-79778493D01*
X123588603Y-79778498D01*
X123774158Y-79908425D01*
X123817783Y-79963002D01*
X123824977Y-80032500D01*
X123793454Y-80094855D01*
X123774158Y-80111575D01*
X123588597Y-80241505D01*
X123421505Y-80408597D01*
X123285965Y-80602169D01*
X123285963Y-80602173D01*
X123274796Y-80626121D01*
X123228623Y-80678559D01*
X123161429Y-80697710D01*
X123094548Y-80677493D01*
X123054485Y-80631258D01*
X123053276Y-80631957D01*
X123050567Y-80627265D01*
X122920045Y-80440858D01*
X122759141Y-80279954D01*
X122572734Y-80149432D01*
X122572732Y-80149431D01*
X122366497Y-80053261D01*
X122366488Y-80053258D01*
X122146697Y-79994366D01*
X122146693Y-79994365D01*
X122146692Y-79994365D01*
X122146691Y-79994364D01*
X122146686Y-79994364D01*
X121920002Y-79974532D01*
X121919997Y-79974532D01*
X121753137Y-79989129D01*
X121684637Y-79975362D01*
X121654650Y-79953282D01*
X120166819Y-78465451D01*
X120133334Y-78404128D01*
X120130500Y-78377770D01*
X120130500Y-76126079D01*
X120101659Y-75981092D01*
X120101658Y-75981091D01*
X120101658Y-75981087D01*
X120098433Y-75973302D01*
X120045087Y-75844511D01*
X120045085Y-75844507D01*
X120045084Y-75844505D01*
X120000501Y-75777782D01*
X119971298Y-75734075D01*
X119962954Y-75721586D01*
X116929048Y-72687680D01*
X116895563Y-72626357D01*
X116900547Y-72556665D01*
X116929044Y-72512323D01*
X119541460Y-69899906D01*
X119601487Y-69867129D01*
X119601463Y-69867036D01*
X119601846Y-69866933D01*
X119602781Y-69866423D01*
X119606432Y-69865704D01*
X119606688Y-69865635D01*
X119606692Y-69865635D01*
X119826496Y-69806739D01*
X120032734Y-69710568D01*
X120219139Y-69580047D01*
X120380047Y-69419139D01*
X120510568Y-69232734D01*
X120606739Y-69026496D01*
X120665635Y-68806692D01*
X120685468Y-68580000D01*
X120665635Y-68353308D01*
X120606739Y-68133504D01*
X120510568Y-67927266D01*
X120380047Y-67740861D01*
X120380045Y-67740858D01*
X120219141Y-67579954D01*
X120032734Y-67449432D01*
X120032732Y-67449431D01*
X119826497Y-67353261D01*
X119826488Y-67353258D01*
X119606697Y-67294366D01*
X119606693Y-67294365D01*
X119606692Y-67294365D01*
X119606691Y-67294364D01*
X119606686Y-67294364D01*
X119380002Y-67274532D01*
X119379998Y-67274532D01*
X119153313Y-67294364D01*
X119153302Y-67294366D01*
X118933511Y-67353258D01*
X118933502Y-67353261D01*
X118727267Y-67449431D01*
X118727265Y-67449432D01*
X118540858Y-67579954D01*
X118379954Y-67740858D01*
X118249432Y-67927265D01*
X118249431Y-67927267D01*
X118153261Y-68133502D01*
X118153258Y-68133511D01*
X118094366Y-68353302D01*
X118094364Y-68353313D01*
X118074532Y-68579998D01*
X118074532Y-68580001D01*
X118094364Y-68806686D01*
X118094366Y-68806697D01*
X118153258Y-69026488D01*
X118153260Y-69026494D01*
X118153261Y-69026496D01*
X118153262Y-69026499D01*
X118153264Y-69026503D01*
X118160732Y-69042520D01*
X118171221Y-69111597D01*
X118142699Y-69175380D01*
X118136029Y-69182601D01*
X115505451Y-71813181D01*
X115444128Y-71846666D01*
X115417770Y-71849500D01*
X114687701Y-71849500D01*
X114620662Y-71829815D01*
X114586126Y-71796623D01*
X114538494Y-71728597D01*
X114371402Y-71561506D01*
X114371396Y-71561501D01*
X114185842Y-71431575D01*
X114142217Y-71376998D01*
X114135023Y-71307500D01*
X114166546Y-71245145D01*
X114185842Y-71228425D01*
X114340687Y-71120001D01*
X114371401Y-71098495D01*
X114538495Y-70931401D01*
X114674035Y-70737830D01*
X114773903Y-70523663D01*
X114835063Y-70295408D01*
X114855659Y-70060000D01*
X114835063Y-69824592D01*
X114773903Y-69596337D01*
X114674035Y-69382171D01*
X114569398Y-69232732D01*
X114538494Y-69188597D01*
X114371402Y-69021506D01*
X114371396Y-69021501D01*
X114185842Y-68891575D01*
X114142217Y-68836998D01*
X114135023Y-68767500D01*
X114166546Y-68705145D01*
X114185842Y-68688425D01*
X114340687Y-68580001D01*
X114371401Y-68558495D01*
X114538495Y-68391401D01*
X114674035Y-68197830D01*
X114773903Y-67983663D01*
X114835063Y-67755408D01*
X114855659Y-67520000D01*
X114835063Y-67284592D01*
X114773903Y-67056337D01*
X114674035Y-66842171D01*
X114538495Y-66648599D01*
X114538494Y-66648597D01*
X114371402Y-66481506D01*
X114371396Y-66481501D01*
X114185842Y-66351575D01*
X114142217Y-66296998D01*
X114135023Y-66227500D01*
X114166546Y-66165145D01*
X114185842Y-66148425D01*
X114208026Y-66132891D01*
X114371401Y-66018495D01*
X114538495Y-65851401D01*
X114674035Y-65657830D01*
X114773903Y-65443663D01*
X114835063Y-65215408D01*
X114855659Y-64980000D01*
X114835063Y-64744592D01*
X114773903Y-64516337D01*
X114766284Y-64499999D01*
X123129341Y-64499999D01*
X123129341Y-64500000D01*
X123149936Y-64735403D01*
X123149938Y-64735413D01*
X123211094Y-64963655D01*
X123211096Y-64963659D01*
X123211097Y-64963663D01*
X123310965Y-65177830D01*
X123310967Y-65177834D01*
X123446501Y-65371395D01*
X123446506Y-65371402D01*
X123613597Y-65538493D01*
X123613603Y-65538498D01*
X123799158Y-65668425D01*
X123842783Y-65723002D01*
X123849977Y-65792500D01*
X123818454Y-65854855D01*
X123799158Y-65871575D01*
X123613597Y-66001505D01*
X123446505Y-66168597D01*
X123310965Y-66362169D01*
X123310964Y-66362171D01*
X123211098Y-66576335D01*
X123211094Y-66576344D01*
X123149938Y-66804586D01*
X123149936Y-66804596D01*
X123129341Y-67039999D01*
X123129341Y-67040000D01*
X123149936Y-67275403D01*
X123149938Y-67275413D01*
X123211094Y-67503655D01*
X123211096Y-67503659D01*
X123211097Y-67503663D01*
X123310965Y-67717830D01*
X123310967Y-67717834D01*
X123446501Y-67911395D01*
X123446506Y-67911402D01*
X123613597Y-68078493D01*
X123613603Y-68078498D01*
X123799158Y-68208425D01*
X123842783Y-68263002D01*
X123849977Y-68332500D01*
X123818454Y-68394855D01*
X123799158Y-68411575D01*
X123613597Y-68541505D01*
X123446505Y-68708597D01*
X123310965Y-68902169D01*
X123310964Y-68902171D01*
X123211098Y-69116335D01*
X123211094Y-69116344D01*
X123149938Y-69344586D01*
X123149936Y-69344596D01*
X123129341Y-69579999D01*
X123129341Y-69580000D01*
X123149936Y-69815403D01*
X123149938Y-69815413D01*
X123211094Y-70043655D01*
X123211096Y-70043659D01*
X123211097Y-70043663D01*
X123218890Y-70060375D01*
X123310965Y-70257830D01*
X123310967Y-70257834D01*
X123419281Y-70412521D01*
X123446505Y-70451401D01*
X123613599Y-70618495D01*
X123692157Y-70673502D01*
X123807165Y-70754032D01*
X123807167Y-70754033D01*
X123807170Y-70754035D01*
X124021337Y-70853903D01*
X124249592Y-70915063D01*
X124436263Y-70931395D01*
X124484999Y-70935659D01*
X124485000Y-70935659D01*
X124485001Y-70935659D01*
X124524234Y-70932226D01*
X124720408Y-70915063D01*
X124948663Y-70853903D01*
X125162830Y-70754035D01*
X125356401Y-70618495D01*
X125523495Y-70451401D01*
X125659035Y-70257830D01*
X125758903Y-70043663D01*
X125820063Y-69815408D01*
X125840659Y-69580000D01*
X125820063Y-69344592D01*
X125758903Y-69116337D01*
X125659035Y-68902171D01*
X125647688Y-68885965D01*
X125523494Y-68708597D01*
X125356402Y-68541506D01*
X125356396Y-68541501D01*
X125170842Y-68411575D01*
X125127217Y-68356998D01*
X125120023Y-68287500D01*
X125151546Y-68225145D01*
X125170842Y-68208425D01*
X125277843Y-68133502D01*
X125356401Y-68078495D01*
X125523495Y-67911401D01*
X125659035Y-67717830D01*
X125758903Y-67503663D01*
X125820063Y-67275408D01*
X125840659Y-67040000D01*
X125820063Y-66804592D01*
X125758903Y-66576337D01*
X125659035Y-66362171D01*
X125647688Y-66345965D01*
X125523494Y-66168597D01*
X125356402Y-66001506D01*
X125356396Y-66001501D01*
X125170842Y-65871575D01*
X125127217Y-65816998D01*
X125120023Y-65747500D01*
X125151546Y-65685145D01*
X125170842Y-65668425D01*
X125193026Y-65652891D01*
X125356401Y-65538495D01*
X125523495Y-65371401D01*
X125659035Y-65177830D01*
X125758903Y-64963663D01*
X125820063Y-64735408D01*
X125840659Y-64500000D01*
X125820063Y-64264592D01*
X125758903Y-64036337D01*
X125659035Y-63822171D01*
X125647687Y-63805965D01*
X125523496Y-63628600D01*
X125503321Y-63608425D01*
X125401179Y-63506283D01*
X125367696Y-63444963D01*
X125372680Y-63375271D01*
X125414551Y-63319337D01*
X125445529Y-63302422D01*
X125577086Y-63253354D01*
X125577093Y-63253350D01*
X125692187Y-63167190D01*
X125692190Y-63167187D01*
X125778350Y-63052093D01*
X125778354Y-63052086D01*
X125828596Y-62917379D01*
X125828598Y-62917372D01*
X125834999Y-62857844D01*
X125835000Y-62857827D01*
X125835000Y-62210000D01*
X124918012Y-62210000D01*
X124950925Y-62152993D01*
X124985000Y-62025826D01*
X124985000Y-61894174D01*
X124950925Y-61767007D01*
X124918012Y-61710000D01*
X125835000Y-61710000D01*
X125835000Y-61062172D01*
X125834999Y-61062155D01*
X125828598Y-61002627D01*
X125828596Y-61002620D01*
X125812699Y-60959998D01*
X128234532Y-60959998D01*
X128234532Y-60960001D01*
X128254364Y-61186686D01*
X128254366Y-61186697D01*
X128313258Y-61406488D01*
X128313261Y-61406497D01*
X128409431Y-61612732D01*
X128409432Y-61612734D01*
X128539954Y-61799141D01*
X128700859Y-61960046D01*
X128736621Y-61985086D01*
X128780247Y-62039662D01*
X128789500Y-62086662D01*
X128789500Y-69993336D01*
X128769815Y-70060375D01*
X128736625Y-70094910D01*
X128700863Y-70119951D01*
X128539951Y-70280862D01*
X128409432Y-70467265D01*
X128409431Y-70467267D01*
X128313261Y-70673502D01*
X128313258Y-70673511D01*
X128254366Y-70893302D01*
X128254364Y-70893313D01*
X128234532Y-71119998D01*
X128234532Y-71120001D01*
X128254364Y-71346686D01*
X128254366Y-71346697D01*
X128313258Y-71566488D01*
X128313261Y-71566497D01*
X128409431Y-71772732D01*
X128409432Y-71772734D01*
X128539954Y-71959141D01*
X128700858Y-72120045D01*
X128700861Y-72120047D01*
X128887266Y-72250568D01*
X129093504Y-72346739D01*
X129313308Y-72405635D01*
X129475230Y-72419801D01*
X129539998Y-72425468D01*
X129540000Y-72425468D01*
X129540002Y-72425468D01*
X129596673Y-72420509D01*
X129766692Y-72405635D01*
X129986496Y-72346739D01*
X130192734Y-72250568D01*
X130379139Y-72120047D01*
X130540047Y-71959139D01*
X130670568Y-71772734D01*
X130766739Y-71566496D01*
X130825635Y-71346692D01*
X130845468Y-71120000D01*
X130825635Y-70893308D01*
X130766739Y-70673504D01*
X130670568Y-70467266D01*
X130605307Y-70374063D01*
X130540048Y-70280862D01*
X130517016Y-70257830D01*
X130379139Y-70119953D01*
X130374373Y-70116615D01*
X130343375Y-70094910D01*
X130299751Y-70040332D01*
X130290500Y-69993336D01*
X130290500Y-62086662D01*
X130310185Y-62019623D01*
X130343379Y-61985086D01*
X130379140Y-61960046D01*
X130540045Y-61799141D01*
X130540047Y-61799139D01*
X130670568Y-61612734D01*
X130766739Y-61406496D01*
X130825635Y-61186692D01*
X130845468Y-60960000D01*
X130825635Y-60733308D01*
X130766739Y-60513504D01*
X130670568Y-60307266D01*
X130540047Y-60120861D01*
X130540045Y-60120858D01*
X130379141Y-59959954D01*
X130192734Y-59829432D01*
X130192732Y-59829431D01*
X129986497Y-59733261D01*
X129986488Y-59733258D01*
X129766697Y-59674366D01*
X129766693Y-59674365D01*
X129766692Y-59674365D01*
X129766691Y-59674364D01*
X129766686Y-59674364D01*
X129540002Y-59654532D01*
X129539998Y-59654532D01*
X129313313Y-59674364D01*
X129313302Y-59674366D01*
X129093511Y-59733258D01*
X129093502Y-59733261D01*
X128887267Y-59829431D01*
X128887265Y-59829432D01*
X128700858Y-59959954D01*
X128539954Y-60120858D01*
X128409432Y-60307265D01*
X128409431Y-60307267D01*
X128313261Y-60513502D01*
X128313258Y-60513511D01*
X128254366Y-60733302D01*
X128254364Y-60733313D01*
X128234532Y-60959998D01*
X125812699Y-60959998D01*
X125778354Y-60867913D01*
X125778350Y-60867906D01*
X125692190Y-60752812D01*
X125692187Y-60752809D01*
X125577093Y-60666649D01*
X125577086Y-60666645D01*
X125442379Y-60616403D01*
X125442372Y-60616401D01*
X125382844Y-60610000D01*
X124735000Y-60610000D01*
X124735000Y-61526988D01*
X124677993Y-61494075D01*
X124550826Y-61460000D01*
X124419174Y-61460000D01*
X124292007Y-61494075D01*
X124235000Y-61526988D01*
X124235000Y-60610000D01*
X123587155Y-60610000D01*
X123527627Y-60616401D01*
X123527620Y-60616403D01*
X123392913Y-60666645D01*
X123392906Y-60666649D01*
X123277812Y-60752809D01*
X123277809Y-60752812D01*
X123191649Y-60867906D01*
X123191645Y-60867913D01*
X123141403Y-61002620D01*
X123141401Y-61002627D01*
X123135000Y-61062155D01*
X123135000Y-61710000D01*
X124051988Y-61710000D01*
X124019075Y-61767007D01*
X123985000Y-61894174D01*
X123985000Y-62025826D01*
X124019075Y-62152993D01*
X124051988Y-62210000D01*
X123135000Y-62210000D01*
X123135000Y-62857844D01*
X123141401Y-62917372D01*
X123141403Y-62917379D01*
X123191645Y-63052086D01*
X123191649Y-63052093D01*
X123277809Y-63167187D01*
X123277812Y-63167190D01*
X123392906Y-63253350D01*
X123392913Y-63253354D01*
X123524470Y-63302421D01*
X123580403Y-63344292D01*
X123604821Y-63409756D01*
X123589970Y-63478029D01*
X123568819Y-63506284D01*
X123446503Y-63628600D01*
X123310965Y-63822169D01*
X123310964Y-63822171D01*
X123211098Y-64036335D01*
X123211094Y-64036344D01*
X123149938Y-64264586D01*
X123149936Y-64264596D01*
X123129341Y-64499999D01*
X114766284Y-64499999D01*
X114674035Y-64302171D01*
X114538495Y-64108599D01*
X114538494Y-64108597D01*
X114371402Y-63941506D01*
X114371396Y-63941501D01*
X114185842Y-63811575D01*
X114142217Y-63756998D01*
X114135023Y-63687500D01*
X114166546Y-63625145D01*
X114185842Y-63608425D01*
X114331714Y-63506284D01*
X114371401Y-63478495D01*
X114538495Y-63311401D01*
X114674035Y-63117830D01*
X114773903Y-62903663D01*
X114835063Y-62675408D01*
X114855659Y-62440000D01*
X114835063Y-62204592D01*
X114773903Y-61976337D01*
X114674035Y-61762171D01*
X114569398Y-61612732D01*
X114538494Y-61568597D01*
X114371402Y-61401506D01*
X114371396Y-61401501D01*
X114185842Y-61271575D01*
X114142217Y-61216998D01*
X114135023Y-61147500D01*
X114166546Y-61085145D01*
X114185842Y-61068425D01*
X114340687Y-60960001D01*
X114371401Y-60938495D01*
X114538495Y-60771401D01*
X114674035Y-60577830D01*
X114773903Y-60363663D01*
X114835063Y-60135408D01*
X114855659Y-59900000D01*
X114835063Y-59664592D01*
X114773903Y-59436337D01*
X114674035Y-59222171D01*
X114538495Y-59028599D01*
X114538494Y-59028597D01*
X114371402Y-58861506D01*
X114371396Y-58861501D01*
X114185842Y-58731575D01*
X114142217Y-58676998D01*
X114135023Y-58607500D01*
X114166546Y-58545145D01*
X114185842Y-58528425D01*
X114208026Y-58512891D01*
X114371401Y-58398495D01*
X114538495Y-58231401D01*
X114674035Y-58037830D01*
X114773903Y-57823663D01*
X114835063Y-57595408D01*
X114855659Y-57360000D01*
X114835063Y-57124592D01*
X114773903Y-56896337D01*
X114674035Y-56682171D01*
X114574487Y-56540000D01*
X114538494Y-56488597D01*
X114371402Y-56321506D01*
X114371396Y-56321501D01*
X114185842Y-56191575D01*
X114142217Y-56136998D01*
X114135023Y-56067500D01*
X114166546Y-56005145D01*
X114185842Y-55988425D01*
X114208026Y-55972891D01*
X114371401Y-55858495D01*
X114538495Y-55691401D01*
X114674035Y-55497830D01*
X114773903Y-55283663D01*
X114835063Y-55055408D01*
X114855659Y-54820000D01*
X114835063Y-54584592D01*
X114773903Y-54356337D01*
X114674035Y-54142171D01*
X114574487Y-54000000D01*
X114538494Y-53948597D01*
X114371402Y-53781506D01*
X114371396Y-53781501D01*
X114185842Y-53651575D01*
X114142217Y-53596998D01*
X114135023Y-53527500D01*
X114166546Y-53465145D01*
X114185842Y-53448425D01*
X114208026Y-53432891D01*
X114371401Y-53318495D01*
X114538495Y-53151401D01*
X114674035Y-52957830D01*
X114773903Y-52743663D01*
X114835063Y-52515408D01*
X114855659Y-52280000D01*
X114835063Y-52044592D01*
X114773903Y-51816337D01*
X114674035Y-51602171D01*
X114574486Y-51460000D01*
X114574485Y-51459999D01*
X123104341Y-51459999D01*
X123104341Y-51460000D01*
X123124936Y-51695403D01*
X123124938Y-51695413D01*
X123186094Y-51923655D01*
X123186096Y-51923659D01*
X123186097Y-51923663D01*
X123242489Y-52044596D01*
X123285965Y-52137830D01*
X123285967Y-52137834D01*
X123421501Y-52331395D01*
X123421506Y-52331402D01*
X123588597Y-52498493D01*
X123588603Y-52498498D01*
X123774158Y-52628425D01*
X123817783Y-52683002D01*
X123824977Y-52752500D01*
X123793454Y-52814855D01*
X123774158Y-52831575D01*
X123588597Y-52961505D01*
X123421505Y-53128597D01*
X123285965Y-53322169D01*
X123285964Y-53322171D01*
X123186098Y-53536335D01*
X123186094Y-53536344D01*
X123124938Y-53764586D01*
X123124936Y-53764596D01*
X123104341Y-53999999D01*
X123104341Y-54000000D01*
X123124936Y-54235403D01*
X123124938Y-54235413D01*
X123186094Y-54463655D01*
X123186096Y-54463659D01*
X123186097Y-54463663D01*
X123242489Y-54584596D01*
X123285965Y-54677830D01*
X123285967Y-54677834D01*
X123421501Y-54871395D01*
X123421506Y-54871402D01*
X123588597Y-55038493D01*
X123588603Y-55038498D01*
X123774158Y-55168425D01*
X123817783Y-55223002D01*
X123824977Y-55292500D01*
X123793454Y-55354855D01*
X123774158Y-55371575D01*
X123588597Y-55501505D01*
X123421505Y-55668597D01*
X123285965Y-55862169D01*
X123285964Y-55862171D01*
X123186098Y-56076335D01*
X123186094Y-56076344D01*
X123124938Y-56304586D01*
X123124936Y-56304596D01*
X123104341Y-56539999D01*
X123104341Y-56540000D01*
X123124936Y-56775403D01*
X123124938Y-56775413D01*
X123186094Y-57003655D01*
X123186096Y-57003659D01*
X123186097Y-57003663D01*
X123242489Y-57124596D01*
X123285965Y-57217830D01*
X123285967Y-57217834D01*
X123385513Y-57359999D01*
X123421505Y-57411401D01*
X123588599Y-57578495D01*
X123685384Y-57646265D01*
X123782165Y-57714032D01*
X123782167Y-57714033D01*
X123782170Y-57714035D01*
X123996337Y-57813903D01*
X124224592Y-57875063D01*
X124412918Y-57891539D01*
X124459999Y-57895659D01*
X124460000Y-57895659D01*
X124460001Y-57895659D01*
X124499234Y-57892226D01*
X124695408Y-57875063D01*
X124923663Y-57813903D01*
X125137830Y-57714035D01*
X125331401Y-57578495D01*
X125498495Y-57411401D01*
X125634035Y-57217830D01*
X125733903Y-57003663D01*
X125795063Y-56775408D01*
X125815659Y-56540000D01*
X125795063Y-56304592D01*
X125733903Y-56076337D01*
X125634035Y-55862171D01*
X125631464Y-55858498D01*
X125498494Y-55668597D01*
X125331402Y-55501506D01*
X125331396Y-55501501D01*
X125145842Y-55371575D01*
X125102217Y-55316998D01*
X125095023Y-55247500D01*
X125126546Y-55185145D01*
X125145842Y-55168425D01*
X125168026Y-55152891D01*
X125331401Y-55038495D01*
X125498495Y-54871401D01*
X125634035Y-54677830D01*
X125733903Y-54463663D01*
X125795063Y-54235408D01*
X125815659Y-54000000D01*
X125795063Y-53764592D01*
X125733903Y-53536337D01*
X125634035Y-53322171D01*
X125631464Y-53318498D01*
X125498494Y-53128597D01*
X125331402Y-52961506D01*
X125331396Y-52961501D01*
X125145842Y-52831575D01*
X125102217Y-52776998D01*
X125095023Y-52707500D01*
X125126546Y-52645145D01*
X125145842Y-52628425D01*
X125168026Y-52612891D01*
X125331401Y-52498495D01*
X125498495Y-52331401D01*
X125634035Y-52137830D01*
X125733903Y-51923663D01*
X125795063Y-51695408D01*
X125815659Y-51460000D01*
X125795063Y-51224592D01*
X125743822Y-51033354D01*
X125733905Y-50996344D01*
X125733904Y-50996343D01*
X125733903Y-50996337D01*
X125634035Y-50782171D01*
X125574735Y-50697482D01*
X125498496Y-50588600D01*
X125498495Y-50588599D01*
X125376179Y-50466283D01*
X125342696Y-50404963D01*
X125347680Y-50335271D01*
X125389551Y-50279337D01*
X125420529Y-50262422D01*
X125552086Y-50213354D01*
X125552093Y-50213350D01*
X125667187Y-50127190D01*
X125667190Y-50127187D01*
X125753350Y-50012093D01*
X125753354Y-50012086D01*
X125803596Y-49877379D01*
X125803598Y-49877372D01*
X125809999Y-49817844D01*
X125810000Y-49817827D01*
X125810000Y-49170000D01*
X124893012Y-49170000D01*
X124925925Y-49112993D01*
X124960000Y-48985826D01*
X124960000Y-48854174D01*
X124925925Y-48727007D01*
X124893012Y-48670000D01*
X125810000Y-48670000D01*
X125810000Y-48022172D01*
X125809999Y-48022155D01*
X125803598Y-47962627D01*
X125803596Y-47962620D01*
X125753354Y-47827913D01*
X125753350Y-47827906D01*
X125667190Y-47712812D01*
X125667187Y-47712809D01*
X125552093Y-47626649D01*
X125552086Y-47626645D01*
X125417379Y-47576403D01*
X125417372Y-47576401D01*
X125357844Y-47570000D01*
X124710000Y-47570000D01*
X124710000Y-48486988D01*
X124652993Y-48454075D01*
X124525826Y-48420000D01*
X124394174Y-48420000D01*
X124267007Y-48454075D01*
X124210000Y-48486988D01*
X124210000Y-47570000D01*
X123562155Y-47570000D01*
X123502627Y-47576401D01*
X123502620Y-47576403D01*
X123367913Y-47626645D01*
X123367906Y-47626649D01*
X123252812Y-47712809D01*
X123252809Y-47712812D01*
X123166649Y-47827906D01*
X123166645Y-47827913D01*
X123116403Y-47962620D01*
X123116401Y-47962627D01*
X123110000Y-48022155D01*
X123110000Y-48670000D01*
X124026988Y-48670000D01*
X123994075Y-48727007D01*
X123960000Y-48854174D01*
X123960000Y-48985826D01*
X123994075Y-49112993D01*
X124026988Y-49170000D01*
X123110000Y-49170000D01*
X123110000Y-49817844D01*
X123116401Y-49877372D01*
X123116403Y-49877379D01*
X123166645Y-50012086D01*
X123166649Y-50012093D01*
X123252809Y-50127187D01*
X123252812Y-50127190D01*
X123367906Y-50213350D01*
X123367913Y-50213354D01*
X123499470Y-50262421D01*
X123555403Y-50304292D01*
X123579821Y-50369756D01*
X123564970Y-50438029D01*
X123543819Y-50466284D01*
X123421503Y-50588600D01*
X123285965Y-50782169D01*
X123285964Y-50782171D01*
X123186098Y-50996335D01*
X123186094Y-50996344D01*
X123124938Y-51224586D01*
X123124936Y-51224596D01*
X123104341Y-51459999D01*
X114574485Y-51459999D01*
X114538496Y-51408600D01*
X114538495Y-51408599D01*
X114416179Y-51286283D01*
X114382696Y-51224963D01*
X114387680Y-51155271D01*
X114429551Y-51099337D01*
X114460529Y-51082422D01*
X114592086Y-51033354D01*
X114592093Y-51033350D01*
X114707187Y-50947190D01*
X114707190Y-50947187D01*
X114793350Y-50832093D01*
X114793354Y-50832086D01*
X114843596Y-50697379D01*
X114843598Y-50697372D01*
X114849999Y-50637844D01*
X114850000Y-50637827D01*
X114850000Y-49990000D01*
X113933012Y-49990000D01*
X113965925Y-49932993D01*
X114000000Y-49805826D01*
X114000000Y-49674174D01*
X113965925Y-49547007D01*
X113933012Y-49490000D01*
X114850000Y-49490000D01*
X114850000Y-48842172D01*
X114849999Y-48842155D01*
X114843598Y-48782627D01*
X114843596Y-48782620D01*
X114793354Y-48647913D01*
X114793350Y-48647906D01*
X114707190Y-48532812D01*
X114707187Y-48532809D01*
X114592093Y-48446649D01*
X114592086Y-48446645D01*
X114457379Y-48396403D01*
X114457372Y-48396401D01*
X114397844Y-48390000D01*
X113750000Y-48390000D01*
X113750000Y-49306988D01*
X113692993Y-49274075D01*
X113565826Y-49240000D01*
X113434174Y-49240000D01*
X113307007Y-49274075D01*
X113250000Y-49306988D01*
X113250000Y-48390000D01*
X112602155Y-48390000D01*
X112542627Y-48396401D01*
X112542620Y-48396403D01*
X112407913Y-48446645D01*
X112407906Y-48446649D01*
X112292812Y-48532809D01*
X112292809Y-48532812D01*
X112206649Y-48647906D01*
X112206645Y-48647913D01*
X112156403Y-48782620D01*
X112156401Y-48782627D01*
X112150000Y-48842155D01*
X112150000Y-49490000D01*
X113066988Y-49490000D01*
X113034075Y-49547007D01*
X113000000Y-49674174D01*
X113000000Y-49805826D01*
X113034075Y-49932993D01*
X113066988Y-49990000D01*
X112150000Y-49990000D01*
X112150000Y-50637844D01*
X112156401Y-50697372D01*
X112156403Y-50697379D01*
X112206645Y-50832086D01*
X112206649Y-50832093D01*
X112292809Y-50947187D01*
X112292812Y-50947190D01*
X112407906Y-51033350D01*
X112407913Y-51033354D01*
X112539470Y-51082421D01*
X112595403Y-51124292D01*
X112619821Y-51189756D01*
X112604970Y-51258029D01*
X112583819Y-51286284D01*
X112461503Y-51408600D01*
X112325965Y-51602169D01*
X112325964Y-51602171D01*
X112226098Y-51816335D01*
X112226094Y-51816344D01*
X112164938Y-52044586D01*
X112164936Y-52044596D01*
X112144341Y-52279999D01*
X94855659Y-52279999D01*
X94835063Y-52044592D01*
X94773903Y-51816337D01*
X94674035Y-51602171D01*
X94574486Y-51460000D01*
X94538496Y-51408600D01*
X94538495Y-51408599D01*
X94416567Y-51286671D01*
X94383084Y-51225351D01*
X94388068Y-51155659D01*
X94429939Y-51099725D01*
X94460915Y-51082810D01*
X94592331Y-51033796D01*
X94707546Y-50947546D01*
X94793796Y-50832331D01*
X94844091Y-50697483D01*
X94850500Y-50637873D01*
X94850499Y-48842128D01*
X94844091Y-48782517D01*
X94793884Y-48647906D01*
X94793797Y-48647671D01*
X94793793Y-48647664D01*
X94707547Y-48532455D01*
X94707544Y-48532452D01*
X94592335Y-48446206D01*
X94592328Y-48446202D01*
X94457482Y-48395908D01*
X94457483Y-48395908D01*
X94397883Y-48389501D01*
X94397881Y-48389500D01*
X94397873Y-48389500D01*
X94397864Y-48389500D01*
X92602129Y-48389500D01*
X92602123Y-48389501D01*
X92542516Y-48395908D01*
X92407671Y-48446202D01*
X92407664Y-48446206D01*
X92292455Y-48532452D01*
X92292452Y-48532455D01*
X92206206Y-48647664D01*
X92206202Y-48647671D01*
X92155908Y-48782517D01*
X92149501Y-48842116D01*
X92149501Y-48842123D01*
X92149500Y-48842135D01*
X92149500Y-50637870D01*
X92149501Y-50637876D01*
X92155908Y-50697483D01*
X92206202Y-50832328D01*
X92206206Y-50832335D01*
X92292452Y-50947544D01*
X92292455Y-50947547D01*
X92407664Y-51033793D01*
X92407671Y-51033797D01*
X92539081Y-51082810D01*
X92595015Y-51124681D01*
X92619432Y-51190145D01*
X92604580Y-51258418D01*
X92583430Y-51286673D01*
X92461503Y-51408600D01*
X92325965Y-51602169D01*
X92325964Y-51602171D01*
X92226098Y-51816335D01*
X92226094Y-51816344D01*
X92164938Y-52044586D01*
X92164936Y-52044596D01*
X92144341Y-52279999D01*
X81780500Y-52279999D01*
X81780500Y-43058711D01*
X84509500Y-43058711D01*
X84509500Y-43301288D01*
X84541161Y-43541785D01*
X84603947Y-43776104D01*
X84696773Y-44000205D01*
X84696776Y-44000212D01*
X84818064Y-44210289D01*
X84818066Y-44210292D01*
X84818067Y-44210293D01*
X84965733Y-44402736D01*
X84965739Y-44402743D01*
X85137256Y-44574260D01*
X85137262Y-44574265D01*
X85329711Y-44721936D01*
X85539788Y-44843224D01*
X85763900Y-44936054D01*
X85998211Y-44998838D01*
X86178586Y-45022584D01*
X86238711Y-45030500D01*
X86238712Y-45030500D01*
X86481289Y-45030500D01*
X86529388Y-45024167D01*
X86721789Y-44998838D01*
X86956100Y-44936054D01*
X87180212Y-44843224D01*
X87390289Y-44721936D01*
X87582738Y-44574265D01*
X87754265Y-44402738D01*
X87901936Y-44210289D01*
X88023224Y-44000212D01*
X88116054Y-43776100D01*
X88178838Y-43541789D01*
X88210500Y-43301288D01*
X88210500Y-43058712D01*
X88210500Y-43058711D01*
X130229500Y-43058711D01*
X130229500Y-43301288D01*
X130261161Y-43541785D01*
X130323947Y-43776104D01*
X130416773Y-44000205D01*
X130416776Y-44000212D01*
X130538064Y-44210289D01*
X130538066Y-44210292D01*
X130538067Y-44210293D01*
X130685733Y-44402736D01*
X130685739Y-44402743D01*
X130857256Y-44574260D01*
X130857262Y-44574265D01*
X131049711Y-44721936D01*
X131259788Y-44843224D01*
X131483900Y-44936054D01*
X131718211Y-44998838D01*
X131898586Y-45022584D01*
X131958711Y-45030500D01*
X131958712Y-45030500D01*
X132201289Y-45030500D01*
X132249388Y-45024167D01*
X132441789Y-44998838D01*
X132676100Y-44936054D01*
X132900212Y-44843224D01*
X133110289Y-44721936D01*
X133302738Y-44574265D01*
X133474265Y-44402738D01*
X133621936Y-44210289D01*
X133743224Y-44000212D01*
X133836054Y-43776100D01*
X133898838Y-43541789D01*
X133930500Y-43301288D01*
X133930500Y-43058712D01*
X133898838Y-42818211D01*
X133836054Y-42583900D01*
X133743224Y-42359788D01*
X133621936Y-42149711D01*
X133474265Y-41957262D01*
X133474260Y-41957256D01*
X133302743Y-41785739D01*
X133302736Y-41785733D01*
X133110293Y-41638067D01*
X133110292Y-41638066D01*
X133110289Y-41638064D01*
X132900212Y-41516776D01*
X132900205Y-41516773D01*
X132676104Y-41423947D01*
X132441785Y-41361161D01*
X132201289Y-41329500D01*
X132201288Y-41329500D01*
X131958712Y-41329500D01*
X131958711Y-41329500D01*
X131718214Y-41361161D01*
X131483895Y-41423947D01*
X131259794Y-41516773D01*
X131259785Y-41516777D01*
X131049706Y-41638067D01*
X130857263Y-41785733D01*
X130857256Y-41785739D01*
X130685739Y-41957256D01*
X130685733Y-41957263D01*
X130538067Y-42149706D01*
X130416777Y-42359785D01*
X130416773Y-42359794D01*
X130323947Y-42583895D01*
X130261161Y-42818214D01*
X130229500Y-43058711D01*
X88210500Y-43058711D01*
X88178838Y-42818211D01*
X88116054Y-42583900D01*
X88023224Y-42359788D01*
X87901936Y-42149711D01*
X87754265Y-41957262D01*
X87754260Y-41957256D01*
X87582743Y-41785739D01*
X87582736Y-41785733D01*
X87390293Y-41638067D01*
X87390292Y-41638066D01*
X87390289Y-41638064D01*
X87180212Y-41516776D01*
X87180205Y-41516773D01*
X86956104Y-41423947D01*
X86721785Y-41361161D01*
X86481289Y-41329500D01*
X86481288Y-41329500D01*
X86238712Y-41329500D01*
X86238711Y-41329500D01*
X85998214Y-41361161D01*
X85763895Y-41423947D01*
X85539794Y-41516773D01*
X85539785Y-41516777D01*
X85329706Y-41638067D01*
X85137263Y-41785733D01*
X85137256Y-41785739D01*
X84965739Y-41957256D01*
X84965733Y-41957263D01*
X84818067Y-42149706D01*
X84696777Y-42359785D01*
X84696773Y-42359794D01*
X84603947Y-42583895D01*
X84541161Y-42818214D01*
X84509500Y-43058711D01*
X81780500Y-43058711D01*
X81780500Y-38724500D01*
X81800185Y-38657461D01*
X81852989Y-38611706D01*
X81904500Y-38600500D01*
X136535500Y-38600500D01*
X136602539Y-38620185D01*
G37*
%TD.AperFunction*%
%TD*%
M02*
